<svg width="183" height="183" xmlns="http://www.w3.org/2000/svg" fill="none">
 <defs>
  <linearGradient y2="0.12394" x2="0.50008" y1="1.12414" x1="0.50008" id="paint0_linear_616_109">
   <stop stop-color="#023E57"/>
   <stop stop-color="#02729D" offset="0.88021"/>
  </linearGradient>
 </defs>
 <g>
  <title>Layer 1</title>
  <path id="svg_9" fill="url(#paint0_linear_616_109)" d="m45.4115,49.67378c2.3764,0 4.2952,1.9188 4.2952,4.2952c0,2.3765 -1.9188,4.2952 -4.2952,4.2952c-2.3765,0 -4.2952,-1.9187 -4.2952,-4.2952c0,-2.3764 1.9187,-4.2952 4.2952,-4.2952zm44.8709,4.2952c0,-2.3764 -1.9188,-4.2952 -4.2952,-4.2952c-2.3765,0 -4.2953,1.9188 -4.2953,4.2952c0,2.3765 1.9188,4.2952 4.2953,4.2952c2.3764,0 4.2952,-1.9187 4.2952,-4.2952zm-40.5053,15.9662c1.3555,0 2.4469,-1.0914 2.4645,-2.4468c0,-1.3555 -1.0914,-2.4645 -2.4469,-2.4645l-0.1056,0c-16.8992,0 -33.3583,4.8409 -47.56423,14.0123c-1.14422,0.7393 -1.46108,2.2532 -0.73934,3.3974c0.47529,0.7218 1.26744,1.1266 2.05959,1.1266c0.45768,0 0.91537,-0.1232 1.33785,-0.3872c13.41373,-8.6433 28.93993,-13.2201 44.90613,-13.2201c0.0352,0 0.0704,0 0.1056,0l-0.0176,-0.0177zm37.3367,-1.9891c0,1.3554 1.0914,2.4644 2.4468,2.4644c11.4594,0 22.6904,3.2038 32.4434,9.2242c0.387,0.2464 0.827,0.3521 1.249,0.3697c0.845,0 1.655,-0.4049 2.13,-1.1619c0.705,-1.1618 0.352,-2.6757 -0.809,-3.3798c-10.527,-6.4956 -22.638,-9.9283 -35.0134,-9.9459c-1.3554,0 -2.4644,1.0914 -2.4644,2.4469l0.0176,-0.0176zm79.8132,57.7386c0,0 -0.158,0.141 -0.229,0.212c9.383,3.221 11.214,11.054 11.513,14.311c0.07,0.722 -0.422,1.373 -1.127,1.514c-15.42,3.274 -25.965,13.572 -46.349,17.603l-0.088,0c-19.17,3.785 -38.5867,1.127 -55.8028,-6.302l-0.6513,1.602c-0.352,0.863 -1.197,1.426 -2.13,1.444c-5.7915,0 -11.3013,-2.641 -14.8924,-7.253c-3.5911,-4.612 -4.8233,-10.597 -3.4151,-16.195c-24.1869,-11.8998 -32.8302,-38.164 -33.3231,-39.3258c-1.8131,1.4082 -3.591,2.9045 -5.281,4.4712c-0.4929,0.4577 -1.1442,0.669 -1.7603,0.6514c-0.6161,-0.0177 -1.2498,-0.2817 -1.7075,-0.7922c-0.9154,-1.0034 -0.86259,-2.5525 0.1408,-3.4679c11.0373,-10.2275 24.6447,-17.3392 39.3435,-20.5607c1.3202,-0.2816 2.6405,0.5457 2.9221,1.866c0.2993,1.3202 -0.5457,2.6405 -1.8659,2.9221c-3.908,0.8626 -7.7455,2.0244 -11.4598,3.4503c7.6398,8.9953 24.4862,3.0454 25.296,-10.5268c-2.2356,0 -6.1084,-1.6723 -7.9919,-4.3832c-2.4293,-3.4855 0.0528,-9.2066 11.2837,-9.2066c9.629,0 14.2235,4.8938 11.3189,9.1538c-1.2322,1.8131 -3.8199,3.7319 -7.5342,4.5416c-0.2464,6.6013 5.0698,12.0759 11.6534,12.0759c0.0528,0 0.1057,0 0.1761,0c3.0805,0 5.8971,-1.3026 7.9567,-3.3094c-1.9012,-0.5281 -3.8376,-0.9682 -5.7915,-1.3026c-1.3379,-0.2289 -2.2356,-1.4787 -2.0244,-2.8342c0.2288,-1.3378 1.4787,-2.2532 2.8341,-2.0244c9.4178,1.5667 18.4129,5.4218 26.0179,11.1781c1.074,0.8098 1.303,2.3589 0.475,3.4503c-0.493,0.6513 -1.232,0.9858 -1.989,0.9682c-0.511,0 -1.021,-0.1584 -1.461,-0.4929c-4.489,-3.3975 -9.506,-6.0556 -14.8045,-7.9215c4.5769,10.4212 14.9805,17.6913 27.0915,17.6913c12.111,0 22.884,-7.4638 27.373,-18.325c0.282,-0.6866 1.056,-1.0386 1.778,-0.8098c6.531,2.2356 10.421,8.7137 9.647,15.2973c9.347,-13.1673 11.829,-30.577 5.492,-46.2968c-0.123,-0.3168 0,-0.6689 0.264,-0.8625c0.282,-0.1937 0.651,-0.1409 0.898,0.088c11.847,12.0583 17.445,29.0279 14.945,45.8743c-1.831,12.3399 -7.833,23.5004 -16.741,31.7745l0,0.052zm-5.897,-1.531c-0.739,-5.7213 -2.992,-10.791 -6.865,-14.6637c-2.993,-2.9926 -6.689,-4.7353 -10.861,-5.4747c-10.334,-2.306 -23.29,0.8098 -35.506,8.7137c-0.863,0.5457 -5.105,2.1828 -8.1331,-0.2465c-3.6438,-2.9221 -0.1936,-6.6188 -3.0981,-9.6994l-0.1585,-0.1585c-1.6371,-1.549 -3.2566,-1.285 -5.9851,-1.285c-2.5525,0 -4.6297,-2.0772 -4.6297,-4.6297c0,-5.3338 0.2289,-4.5944 -4.1544,-8.6256c-3.8023,-0.757 -7.8687,-2.3236 -11.495,-6.9885c-5.0169,7.0941 -14.7867,12.2167 -24.7678,10.4035l33.5519,36.6854c2.9398,3.204 3.5559,7.921 1.5139,11.777c-0.7745,1.478 -1.5491,3.063 -2.2884,4.823c-0.5809,1.426 -0.8098,1.954 -1.2499,3.221c7.235,3.134 14.822,5.352 22.4619,6.566c9.7173,1.549 19.5573,-1.918 26.1413,-9.241c1.232,-1.373 2.464,-2.817 3.696,-4.278c11.812,-13.959 23.114,-17.832 31.81,-16.882l0.017,-0.017zm-126.0045,-63.2314c-3.5207,-6.8477 -2.4645,-14.6811 2.7285,-20.7015c11.8999,-13.85381 36.1749,-11.23091 52.9508,-4.2952c0.6338,-1.0386 0.9858,-2.2532 0.9858,-3.5559c0,-3.81989 -3.0981,-6.91808 -6.9181,-6.91808c-1.5139,0 -2.9045,0.49289 -4.0487,1.32025c-16.9697,-6.67166 -37.0727,-7.58704 -50.3632,4.94654c-1.2498,-1.77794 -3.3094,-2.93976 -5.6507,-2.93976c-3.8199,0 -6.9005,3.09819 -6.9005,6.91815c0,3.0629 1.9892,5.6682 4.7529,6.566c-3.8551,7.5166 -5.5098,15.4381 -5.7915,23.1836c5.8267,-2.3941 11.9879,-3.9079 18.2547,-4.5065l0,-0.0176z"/>
 </g>
</svg>