<svg width="36" height="36" viewBox="0 0 36 36" fill="none" xmlns="http://www.w3.org/2000/svg">
<rect x="0.1125" y="0.1125" width="35.775" height="35.775" rx="8.8875" fill="white"/>
<path d="M10.7716 11.7837C11.1072 11.7837 11.3781 12.0544 11.3781 12.3896C11.3781 12.7248 11.1072 12.9954 10.7716 12.9954C10.436 12.9954 10.165 12.7248 10.165 12.3896C10.165 12.0544 10.436 11.7837 10.7716 11.7837ZM17.108 12.3896C17.108 12.0544 16.8371 11.7837 16.5015 11.7837C16.1659 11.7837 15.8949 12.0544 15.8949 12.3896C15.8949 12.7248 16.1659 12.9954 16.5015 12.9954C16.8371 12.9954 17.108 12.7248 17.108 12.3896ZM11.3881 14.6417C11.5795 14.6417 11.7336 14.4877 11.7361 14.2965C11.7361 14.1053 11.582 13.9489 11.3906 13.9489H11.3756C8.98922 13.9489 6.66494 14.6317 4.65885 15.9254C4.49727 16.0297 4.45252 16.2432 4.55444 16.4046C4.62156 16.5064 4.73342 16.5635 4.84529 16.5635C4.90992 16.5635 4.97455 16.5461 5.03421 16.5089C6.92844 15.2897 9.12097 14.6442 11.3756 14.6442C11.3806 14.6442 11.3856 14.6442 11.3906 14.6442L11.3881 14.6417ZM16.6606 14.3611C16.6606 14.5523 16.8147 14.7087 17.0061 14.7087C18.6243 14.7087 20.2103 15.1606 21.5876 16.0098C21.6423 16.0446 21.7044 16.0595 21.764 16.0619C21.8833 16.0619 21.9977 16.0048 22.0648 15.8981C22.1643 15.7342 22.1145 15.5206 21.9505 15.4213C20.464 14.5051 18.7537 14.0209 17.0061 14.0184C16.8147 14.0184 16.6581 14.1724 16.6581 14.3636L16.6606 14.3611ZM27.9314 22.5053C27.9314 22.5053 27.9091 22.5252 27.8991 22.5352C29.2241 22.9895 29.4827 24.0944 29.5249 24.5538C29.5348 24.6556 29.4653 24.7475 29.3657 24.7674C27.1882 25.2292 25.6991 26.6817 22.8206 27.2503H22.8081C20.101 27.7842 17.3591 27.4093 14.9279 26.3614L14.836 26.5874C14.7862 26.7091 14.6669 26.7885 14.5352 26.791C13.7173 26.791 12.9392 26.4185 12.4321 25.768C11.925 25.1174 11.751 24.2732 11.9499 23.4836C8.53431 21.8051 7.31374 18.1005 7.24414 17.9366C6.9881 18.1352 6.73703 18.3463 6.49838 18.5673C6.42877 18.6318 6.3368 18.6617 6.2498 18.6592C6.16279 18.6567 6.07331 18.6194 6.00867 18.5474C5.8794 18.4059 5.88686 18.1874 6.02856 18.0583C7.58719 16.6157 9.50876 15.6125 11.5845 15.1581C11.7709 15.1184 11.9573 15.2351 11.9971 15.4213C12.0394 15.6075 11.92 15.7938 11.7336 15.8335C11.1817 15.9552 10.6398 16.119 10.1153 16.3202C11.1942 17.589 13.5731 16.7497 13.6875 14.8353C13.3718 14.8353 12.8249 14.5995 12.5589 14.2171C12.2159 13.7254 12.5664 12.9185 14.1523 12.9185C15.5121 12.9185 16.1609 13.6087 15.7507 14.2096C15.5767 14.4654 15.2113 14.736 14.6868 14.8502C14.652 15.7814 15.4027 16.5536 16.3324 16.5536C16.3399 16.5536 16.3474 16.5536 16.3573 16.5536C16.7923 16.5536 17.1901 16.3698 17.4809 16.0868C17.2124 16.0123 16.939 15.9502 16.6631 15.903C16.4741 15.8708 16.3474 15.6945 16.3772 15.5033C16.4095 15.3146 16.586 15.1854 16.7774 15.2177C18.1073 15.4387 19.3776 15.9825 20.4515 16.7944C20.6032 16.9086 20.6355 17.1272 20.5186 17.2811C20.449 17.373 20.3446 17.4201 20.2377 17.4177C20.1656 17.4177 20.0935 17.3953 20.0314 17.3481C19.3975 16.8689 18.689 16.494 17.9408 16.2308C18.5871 17.7007 20.0563 18.7262 21.7665 18.7262C23.4768 18.7262 24.9981 17.6734 25.632 16.1414C25.6718 16.0446 25.7811 15.9949 25.8831 16.0272C26.8054 16.3425 27.3547 17.2563 27.2454 18.1849C28.5653 16.3276 28.9158 13.8719 28.0209 11.6546C28.0036 11.6099 28.0209 11.5603 28.0582 11.533C28.098 11.5056 28.1502 11.5131 28.185 11.5454C29.858 13.2462 30.6485 15.6398 30.2955 18.0161C30.0369 19.7566 29.1894 21.3309 27.9314 22.498V22.5053ZM27.0987 22.2893C26.9943 21.4823 26.6762 20.7672 26.1292 20.221C25.7066 19.7989 25.1846 19.5531 24.5955 19.4488C23.1362 19.1235 21.3066 19.563 19.5815 20.6778C19.4596 20.7548 18.8606 20.9857 18.433 20.6431C17.9184 20.2309 18.4056 19.7095 17.9955 19.275L17.9731 19.2526C17.7419 19.0341 17.5132 19.0713 17.1279 19.0713C16.7675 19.0713 16.4741 18.7783 16.4741 18.4183C16.4741 17.666 16.5065 17.7703 15.8875 17.2016C15.3505 17.0949 14.7763 16.8739 14.2642 16.2159C13.5557 17.2165 12.1761 17.9391 10.7666 17.6833L15.5046 22.8579C15.9198 23.3099 16.0068 23.9752 15.7184 24.5191C15.6091 24.7276 15.4997 24.9511 15.3953 25.1994C15.3132 25.4005 15.2809 25.475 15.2188 25.6537C16.2405 26.0958 17.3119 26.4086 18.3907 26.5799C19.763 26.7984 21.1525 26.3093 22.0823 25.2764C22.2563 25.0827 22.4302 24.8791 22.6042 24.673C24.2722 22.704 25.8683 22.1577 27.0963 22.2917L27.0987 22.2893ZM9.30492 13.3704C8.80774 12.4045 8.95689 11.2996 9.69022 10.4504C11.3707 8.49624 14.7987 8.86621 17.1677 9.84451C17.2572 9.69801 17.3069 9.52669 17.3069 9.34294C17.3069 8.80413 16.8694 8.36712 16.33 8.36712C16.1162 8.36712 15.9198 8.43665 15.7582 8.55335C13.3618 7.61229 10.523 7.48317 8.64616 9.25107C8.46967 9.00029 8.17883 8.83641 7.8482 8.83641C7.30877 8.83641 6.87374 9.27342 6.87374 9.81223C6.87374 10.2443 7.15465 10.6118 7.54492 10.7384C7.00053 11.7986 6.76686 12.916 6.72708 14.0085C7.5499 13.6708 8.41995 13.4573 9.30492 13.3728V13.3704Z" fill="#3525E6"/>
<rect x="0.1125" y="0.1125" width="35.775" height="35.775" rx="8.8875" stroke="#D0D5DD" stroke-width="0.225"/>
</svg>
