<svg width="43" height="34" viewBox="0 0 43 34" fill="none" xmlns="http://www.w3.org/2000/svg">
    <path d="M9.11242 10.6996H9.10232C6.08255 10.9722 3.22436 12.1034 0.840863 13.9718C0.65907 14.1132 0.537873 14.3253 0.507575 14.5576C0.477276 14.7899 0.537874 15.0222 0.689368 15.204C0.86106 15.4161 1.10345 15.5373 1.37614 15.5373H1.45694C1.62863 15.5171 1.78012 15.4565 1.91142 15.3555C4.03233 13.6992 6.57743 12.6892 9.27401 12.4468C9.75879 12.4064 10.1123 11.9721 10.0618 11.4974C10.0214 11.0531 9.6477 10.7097 9.10232 10.7097L9.11242 10.6996Z" fill="#2186E6"/>
    <path d="M8.31454 8.07363C8.31454 8.7402 8.84981 9.27549 9.51639 9.27549C10.183 9.27549 10.7182 8.7402 10.7182 8.07363C10.7182 7.40706 10.183 6.87178 9.51639 6.87178C8.84981 6.87178 8.31454 7.40706 8.31454 8.07363Z" fill="#2186E6"/>
    <path d="M18.1112 8.07363C18.1112 8.7402 18.6464 9.27549 19.313 9.27549C19.9796 9.27549 20.5149 8.7402 20.5149 8.07363C20.5149 7.40706 19.9796 6.87178 19.313 6.87178C18.6464 6.87178 18.1112 7.40706 18.1112 8.07363Z" fill="#2186E6"/>
    <path d="M7.05212 9.72995C6.21385 8.10391 6.46634 6.2456 7.69849 4.81145C10.5264 1.51899 16.2932 2.14515 20.2725 3.79139C20.424 3.549 20.5048 3.25609 20.5048 2.9531C20.5048 2.04414 19.7675 1.31698 18.8686 1.31698C18.505 1.31698 18.1819 1.42807 17.9092 1.63006C13.8693 0.0444252 9.10233 -0.167662 5.94116 2.80162C5.64827 2.37743 5.15339 2.10474 4.59792 2.10474C3.68895 2.10474 2.96178 2.84204 2.96178 3.7409C2.96178 4.46807 3.43647 5.08413 4.09294 5.30632C3.17388 7.09395 2.77999 8.97248 2.71939 10.8106C4.10304 10.245 5.56748 9.88142 7.05212 9.74002V9.72995Z" fill="#2186E6"/>
    <path d="M38.381 25.1117C40.502 23.1524 41.926 20.4962 42.3603 17.5673C42.9561 13.5578 41.623 9.52804 38.8052 6.66986C38.7446 6.60926 38.6638 6.59914 38.5931 6.64964C38.5224 6.69004 38.5022 6.78095 38.5325 6.85164C40.0374 10.5885 39.4516 14.7192 37.2297 17.8501C37.4115 16.2846 36.4924 14.7495 34.9371 14.2143C34.7654 14.1537 34.5836 14.2446 34.5129 14.4061C33.4524 16.9815 30.9174 18.7591 28.0088 18.7591C26.3625 18.7591 22.858 17.9511 21.3834 14.1234C21.3531 14.0426 21.2824 13.992 21.2016 13.9819C21.1208 13.9719 21.0401 14.0122 20.9896 14.0728C20.323 15.0424 19.212 15.1232 18.8686 15.103C17.3032 15.103 16.0407 13.8001 16.1013 12.2347C16.98 12.0428 17.5961 11.5884 17.889 11.1541C18.5757 10.1441 17.485 8.98264 15.2025 8.98264C12.5362 8.98264 11.9504 10.3461 12.5261 11.1743C12.9705 11.8206 13.8996 12.2145 14.4248 12.2145C14.3642 13.275 13.8895 14.1334 13.223 14.7394C11.4959 16.3049 8.70845 16.0726 7.74899 13.7194C6.16336 14.3556 4.66862 15.1838 3.29508 16.1938C3.74956 18.4662 6.19366 24.1522 11.5161 26.768C11.1829 28.1012 11.4757 29.5252 12.3241 30.616C13.1826 31.7067 14.4854 32.343 15.859 32.3329C16.0812 32.3329 16.2831 32.2016 16.3639 31.9895L16.5154 31.6057C20.6058 33.3732 25.2112 33.9993 29.7661 33.1106H29.7863C34.624 32.1511 37.1388 29.6969 40.7948 28.9293C40.9665 28.8889 41.0776 28.7374 41.0574 28.5658C40.9867 27.7881 40.5524 25.9298 38.3204 25.1622C38.3406 25.142 38.3608 25.1319 38.3709 25.1117H38.381ZM29.4227 28.7576C29.1298 29.101 28.8369 29.4444 28.544 29.7777C26.9786 31.5148 24.6456 32.343 22.3328 31.9693C20.5149 31.6764 18.7171 31.1512 17.0002 30.414C17.1113 30.111 17.1618 29.9898 17.2931 29.6464C17.4648 29.2323 17.6466 28.8586 17.8385 28.5052C18.3233 27.5861 18.1718 26.4752 17.4749 25.7076L9.50632 16.9916C11.8797 17.4158 14.1925 16.2039 15.3944 14.5172C16.2528 15.6282 17.2224 15.9918 18.1213 16.1736C19.1615 17.133 19.111 16.9512 19.111 18.2238C19.111 18.8298 19.6059 19.3246 20.2119 19.3246C20.8583 19.3246 21.242 19.2539 21.6359 19.6276L21.6763 19.668C22.3732 20.3952 21.545 21.2739 22.4136 21.9707C23.1307 22.5464 24.1406 22.1626 24.3426 22.0313C27.2412 20.1528 30.3216 19.4155 32.7758 19.9609C33.7655 20.1326 34.6442 20.5568 35.3512 21.2637C36.2702 22.1828 36.8055 23.3847 36.9772 24.7481C34.9068 24.5158 32.2304 25.445 29.4227 28.7576Z" fill="#2186E6"/>
    <path d="M25.6656 14.1433C25.5344 14.1433 25.4031 14.1029 25.2819 14.0423C25.0294 13.8908 24.7668 13.7596 24.5042 13.6384C23.0701 12.9617 21.5349 12.5375 19.919 12.3961C19.3736 12.3254 19.1514 11.8911 19.1716 11.5275C19.1918 11.1438 19.4847 10.7499 20.0907 10.7499C22.4641 10.9721 24.888 11.7699 26.0999 12.7496C26.2716 12.8809 26.3827 13.0728 26.413 13.295C26.4433 13.5879 26.3221 13.8606 26.0797 14.0221C25.9585 14.1029 25.8172 14.1433 25.6758 14.1433H25.6656Z" fill="#2186E6"/>
</svg>
