<svg width="134" height="28" viewBox="0 0 134 28" fill="none" xmlns="http://www.w3.org/2000/svg">
<g clip-path="url(#clip0_1351_38213)">
<path d="M57.2531 23.5109C57.1683 23.4617 57.069 23.4476 56.977 23.4757C56.0221 23.7503 54.9398 23.9193 54.0905 23.9193C51.7631 23.9193 50.723 22.8068 50.723 20.3001V12.4209H57.069C57.2531 12.4209 57.4086 12.273 57.4086 12.0829V9.15365C57.4086 8.97057 57.2599 8.81569 57.069 8.81569H50.723V2.61225C50.723 2.42917 50.5743 2.27429 50.3834 2.27429H46.8672C46.6832 2.27429 46.5276 2.42213 46.5276 2.61225V8.81569H37.472V2.61225C37.472 2.42917 37.3233 2.27429 37.1324 2.27429H33.6162C33.4321 2.27429 33.2766 2.42213 33.2766 2.61225V8.81569H29.5623C29.3786 8.81569 29.2227 8.96353 29.2227 9.15365V12.0829C29.2227 12.2659 29.3714 12.4209 29.5623 12.4209H33.2766V20.3001C33.2766 25.0812 35.7953 27.8203 40.1816 27.8203C41.6249 27.8203 42.6577 27.6511 44.4405 27.1231C44.6033 27.0739 44.7094 26.9119 44.6741 26.7427L44.1363 23.7362C44.1222 23.6447 44.0656 23.5602 43.9808 23.5109C43.896 23.4617 43.7967 23.4476 43.7047 23.4757C42.7498 23.7503 41.6674 23.9193 40.8182 23.9193C38.4908 23.9193 37.4507 22.8068 37.4507 20.3001V12.4209H46.5063V20.3001C46.5063 25.0812 49.025 27.8203 53.4113 27.8203C54.8546 27.8203 55.8874 27.6511 57.6702 27.1231C57.833 27.0739 57.9391 26.9119 57.9038 26.7427L57.366 23.7362C57.3519 23.6447 57.2953 23.5602 57.2105 23.5109H57.2531Z" fill="#090065"/>
<path d="M68.1135 8.36499C62.4961 8.36499 58.4141 12.4419 58.4141 18.0539C58.4141 23.6658 62.4889 27.7076 68.1135 27.7076C72.245 27.7076 75.6125 25.5881 76.688 22.3068C76.7234 22.2012 76.7021 22.0956 76.6386 22.0041C76.5747 21.9196 76.4758 21.8632 76.3625 21.8632H72.5778C72.4504 21.8632 72.337 21.9337 72.2804 22.0393C71.5871 23.3489 70.1439 24.0672 68.2268 24.0672C64.8802 24.0672 63.1754 21.8914 62.6449 19.7227H76.6667C76.6667 19.7227 76.6952 19.7227 76.7021 19.7227C76.766 19.7227 76.8367 19.7227 76.8934 19.6875C76.9922 19.6382 77.0561 19.5466 77.0702 19.441C77.1478 18.92 77.1478 18.3637 77.1478 17.8638C77.1056 12.3645 73.3064 8.36499 68.0994 8.36499H68.1135ZM62.6376 16.4273C63.2248 13.7094 65.2339 12.0406 67.958 12.0406C70.6816 12.0406 72.4717 13.6742 72.8889 16.4273H62.6376Z" fill="#090065"/>
<path d="M14.6056 0.190186C6.96467 0.190186 0.746094 6.37954 0.746094 13.9842C0.746094 21.5888 6.96467 27.7781 14.6056 27.7781C22.2465 27.7781 28.465 21.5888 28.465 13.9842C28.465 6.37954 22.2465 0.190186 14.6056 0.190186ZM24.0856 13.9842C24.0856 19.3567 19.8339 23.7223 14.6056 23.7223C9.37727 23.7223 5.08981 19.4412 5.08981 13.9842C5.08981 8.52714 9.27117 4.24602 14.6056 4.24602C19.94 4.24602 24.0856 8.61162 24.0856 13.9842Z" fill="#090065"/>
<path d="M89.6631 8.40731C87.1798 8.40731 84.9866 9.28043 83.2745 10.9351V9.16071C83.2745 8.97763 83.1258 8.82275 82.9349 8.82275H79.4187C79.2346 8.82275 79.0791 8.97059 79.0791 9.16071V26.9188C79.0791 27.102 79.2278 27.2568 79.4187 27.2568H82.9349C83.119 27.2568 83.2745 27.1092 83.2745 26.9188V15.6599C84.8379 13.5615 86.9889 12.4561 89.6699 12.3857C89.854 12.3857 89.9955 12.2307 89.9955 12.0477V8.73823C89.9955 8.55515 89.8468 8.40027 89.6559 8.40027L89.6631 8.40731Z" fill="#090065"/>
<path d="M114.374 8.82288H99.0151C98.8315 8.82288 98.6755 8.97076 98.6755 9.16088V12.0901C98.6755 12.2731 98.8242 12.428 99.0151 12.428H108.623L98.4067 24.9968C98.3572 25.0532 98.3291 25.1306 98.3291 25.2081V26.9193C98.3291 27.1021 98.4774 27.2573 98.6687 27.2573H114.367C114.551 27.2573 114.707 27.1093 114.707 26.9193V23.9899C114.707 23.8068 114.559 23.6519 114.367 23.6519H104.569L114.629 11.3085C114.679 11.2522 114.707 11.1747 114.707 11.0972V9.16088C114.707 8.9778 114.559 8.82288 114.367 8.82288H114.374Z" fill="#090065"/>
<path d="M124.957 8.36499C119.34 8.36499 115.258 12.4419 115.258 18.0539C115.258 23.6658 119.333 27.7076 124.957 27.7076C129.089 27.7076 132.456 25.5881 133.532 22.3068C133.567 22.2012 133.546 22.0956 133.482 22.0041C133.418 21.9196 133.32 21.8632 133.206 21.8632H129.421C129.294 21.8632 129.181 21.9337 129.124 22.0393C128.431 23.3489 126.988 24.0672 125.07 24.0672C121.724 24.0672 120.019 21.8914 119.488 19.7227H133.51C133.51 19.7227 133.539 19.7227 133.546 19.7227C133.61 19.7227 133.68 19.7227 133.737 19.6875C133.836 19.6382 133.899 19.5466 133.914 19.441C133.992 18.92 133.992 18.3637 133.992 17.8638C133.949 12.3645 130.15 8.36499 124.943 8.36499H124.957ZM119.481 16.4273C120.069 13.7094 122.078 12.0406 124.801 12.0406C127.525 12.0406 129.315 13.6742 129.733 16.4273H119.481Z" fill="#090065"/>
<path d="M93.8992 0C92.3993 0 91.2676 1.0914 91.2676 2.54192C91.2676 3.99244 92.3993 5.08384 93.8992 5.08384C95.3991 5.08384 96.5313 3.96428 96.5313 2.54192C96.5313 1.11956 95.3778 0 93.8992 0Z" fill="#090065"/>
<path d="M95.655 8.82288H92.1814C91.9937 8.82288 91.8418 8.9742 91.8418 9.16088V26.9121C91.8418 27.0989 91.9937 27.2501 92.1814 27.2501H95.655C95.8423 27.2501 95.9946 27.0989 95.9946 26.9121V9.16088C95.9946 8.9742 95.8423 8.82288 95.655 8.82288Z" fill="#090065"/>
</g>
<defs>
<clipPath id="clip0_1351_38213">
<rect width="133" height="28" fill="white" transform="translate(0.746094)"/>
</clipPath>
</defs>
</svg>
