<svg width="106" height="90" viewBox="0 0 106 90" fill="none" xmlns="http://www.w3.org/2000/svg">
    <path d="M31.8529 17.4315H31.8357C26.6806 17.897 21.8013 19.828 17.7324 23.0176C17.4221 23.259 17.2152 23.6211 17.1634 24.0176C17.1117 24.4141 17.2152 24.8107 17.4738 25.121C17.7669 25.4831 18.1807 25.69 18.6462 25.69H18.7841C19.0772 25.6555 19.3358 25.5521 19.56 25.3797C23.1806 22.5521 27.5254 20.828 32.1288 20.4142C32.9564 20.3452 33.5598 19.6039 33.4736 18.7935C33.4046 18.0349 32.7667 17.4487 31.8357 17.4487L31.8529 17.4315Z" fill="#2186E6"/>
    <path d="M30.4909 12.9487C30.4909 14.0866 31.4046 15.0004 32.5426 15.0004C33.6805 15.0004 34.5943 14.0866 34.5943 12.9487C34.5943 11.8108 33.6805 10.897 32.5426 10.897C31.4046 10.897 30.4909 11.8108 30.4909 12.9487Z" fill="#2186E6"/>
    <path d="M47.2148 12.9487C47.2148 14.0866 48.1286 15.0004 49.2666 15.0004C50.4045 15.0004 51.3183 14.0866 51.3183 12.9487C51.3183 11.8108 50.4045 10.897 49.2666 10.897C48.1286 10.897 47.2148 11.8108 47.2148 12.9487Z" fill="#2186E6"/>
    <path d="M28.3358 15.7762C26.9047 13.0004 27.3358 9.828 29.4392 7.37975C34.2667 1.75913 44.1114 2.82806 50.9045 5.63838C51.1631 5.22459 51.301 4.72456 51.301 4.20733C51.301 2.65562 50.0424 1.41426 48.5079 1.41426C47.8873 1.41426 47.3356 1.60391 46.87 1.94874C39.9736 -0.758132 31.8357 -1.12019 26.4392 3.94872C25.9392 3.22459 25.0944 2.75907 24.1461 2.75907C22.5944 2.75907 21.3531 4.01772 21.3531 5.55219C21.3531 6.79356 22.1634 7.84525 23.2841 8.22456C21.7151 11.2762 21.0427 14.4831 20.9393 17.621C23.3013 16.6555 25.8013 16.0348 28.3358 15.7934V15.7762Z" fill="#2186E6"/>
    <path d="M81.818 42.0347C85.4386 38.6899 87.8696 34.1554 88.611 29.1555C89.6282 22.3107 87.3524 15.4315 82.5421 10.5523C82.4386 10.4488 82.3007 10.4316 82.18 10.5178C82.0593 10.5867 82.0248 10.7419 82.0766 10.8626C84.6455 17.2418 83.6455 24.2935 79.8525 29.6382C80.1628 26.9658 78.5938 24.3452 75.9387 23.4314C75.6456 23.328 75.3353 23.4832 75.2146 23.759C73.4043 28.1555 69.0767 31.19 64.1112 31.19C61.3009 31.19 55.3182 29.8107 52.801 23.2763C52.7493 23.1384 52.6286 23.0521 52.4907 23.0349C52.3527 23.0176 52.2148 23.0866 52.1286 23.19C50.9907 24.8452 49.0942 24.9832 48.508 24.9487C45.8356 24.9487 43.6804 22.7245 43.7839 20.0521C45.2838 19.7246 46.3356 18.9487 46.8356 18.2074C48.008 16.4832 46.1459 14.5005 42.2494 14.5005C37.6977 14.5005 36.6977 16.8281 37.6805 18.2418C38.4391 19.3453 40.0253 20.0177 40.9218 20.0177C40.8184 21.828 40.0081 23.2935 38.8701 24.328C35.9219 27.0004 31.1633 26.6038 29.5254 22.5866C26.8185 23.6728 24.2668 25.0866 21.922 26.8107C22.6979 30.69 26.8703 40.3968 35.9564 44.8622C35.3874 47.1381 35.8874 49.5691 37.3357 51.4311C38.8012 53.2932 41.0253 54.3794 43.3701 54.3621C43.7494 54.3621 44.0942 54.138 44.2321 53.7759L44.4908 53.1208C51.4734 56.138 59.3354 57.2069 67.1112 55.6897H67.1457C75.4042 54.0518 79.6973 49.8622 85.9386 48.5518C86.2317 48.4829 86.4213 48.2243 86.3869 47.9312C86.2662 46.6036 85.5248 43.4312 81.7145 42.1209C81.749 42.0864 81.7835 42.0691 81.8007 42.0347H81.818ZM66.525 48.2588C66.025 48.845 65.525 49.4312 65.025 50.0001C62.3526 52.9656 58.3699 54.3794 54.4217 53.7414C51.3183 53.2414 48.2493 52.3449 45.3183 51.0863C45.508 50.569 45.5942 50.3622 45.8183 49.776C46.1114 49.0691 46.4218 48.4312 46.7493 47.8277C47.5769 46.2588 47.3183 44.3623 46.1287 43.0519L32.5254 28.1728C36.5771 28.8969 40.5253 26.8279 42.577 23.9487C44.0425 25.8452 45.6976 26.4659 47.2321 26.7762C49.0079 28.4142 48.9218 28.1038 48.9218 30.2762C48.9218 31.3107 49.7666 32.1555 50.801 32.1555C51.9045 32.1555 52.5597 32.0348 53.2321 32.6727L53.301 32.7417C54.4907 33.983 53.0769 35.483 54.5596 36.6727C55.7837 37.6554 57.5079 37.0002 57.8527 36.7761C62.8009 33.5693 68.0595 32.3107 72.2491 33.2417C73.9387 33.5348 75.4387 34.2589 76.6456 35.4658C78.2145 37.0347 79.1283 39.0864 79.4214 41.414C75.887 41.0174 71.3181 42.6036 66.525 48.2588Z" fill="#2186E6"/>
    <path d="M60.1113 23.3104C59.8871 23.3104 59.663 23.2414 59.4561 23.138C59.0251 22.8793 58.5768 22.6552 58.1285 22.4483C55.6803 21.2932 53.0596 20.569 50.301 20.3276C49.37 20.207 48.9907 19.4656 49.0252 18.8449C49.0597 18.1898 49.5597 17.5173 50.5941 17.5173C54.6458 17.8966 58.7837 19.2587 60.8527 20.9311C61.1458 21.1552 61.3354 21.4828 61.3871 21.8621C61.4388 22.3621 61.2319 22.8276 60.8182 23.1035C60.6113 23.2414 60.3699 23.3104 60.1285 23.3104H60.1113Z" fill="#2186E6"/>
<!--    <path d="M44.9547 86.5565C44.8912 86.5153 44.8119 86.5058 44.7389 86.528C43.9804 86.7501 43.1235 86.8802 42.4443 86.8802C40.594 86.8802 39.7689 85.9884 39.7689 83.9922V77.7019H44.8151C44.9642 77.7019 45.0848 77.5813 45.0848 77.4321V75.0931C45.0848 74.944 44.9642 74.8234 44.8151 74.8234H39.7689V69.8692C39.7689 69.7201 39.6483 69.5995 39.4991 69.5995H36.7063C36.5571 69.5995 36.4365 69.7201 36.4365 69.8692V74.8234H29.2417V69.8692C29.2417 69.7201 29.1211 69.5995 28.972 69.5995H26.1791C26.0299 69.5995 25.9093 69.7201 25.9093 69.8692V74.8234H22.9546C22.8055 74.8234 22.6849 74.944 22.6849 75.0931V77.4321C22.6849 77.5813 22.8055 77.7019 22.9546 77.7019H25.9093V83.9922C25.9093 87.8101 27.9119 90 31.3998 90C32.5455 90 33.3675 89.8635 34.7862 89.4414C34.9163 89.4033 34.9988 89.2732 34.9734 89.1367L34.5481 86.7374C34.5354 86.6613 34.491 86.5978 34.4244 86.5565C34.3577 86.5153 34.2815 86.5058 34.2086 86.528C33.45 86.7501 32.5931 86.8802 31.914 86.8802C30.0637 86.8802 29.2385 85.9884 29.2385 83.9922V77.7019H36.4333V83.9922C36.4333 87.8101 38.4359 90 41.9238 90C43.0695 90 43.8915 89.8635 45.3102 89.4414C45.4403 89.4033 45.5228 89.2732 45.4974 89.1367L45.0721 86.7374C45.0594 86.6613 45.015 86.5978 44.9483 86.5565H44.9547Z" fill="#2186E6"/>-->
<!--    <path d="M53.5872 74.4616C49.1218 74.4616 45.8782 77.7146 45.8782 82.1991C45.8782 86.6835 49.1186 89.9048 53.5872 89.9048C56.8751 89.9048 59.5474 88.2101 60.4011 85.5918C60.4265 85.5092 60.4138 85.4204 60.363 85.3506C60.3122 85.2807 60.2329 85.2395 60.1472 85.2395H57.1417C57.0433 85.2395 56.9513 85.2934 56.9037 85.3823C56.3514 86.4264 55.2089 87.0009 53.6792 87.0009C51.0165 87.0009 49.6613 85.2617 49.2424 83.5288H60.3884C60.3884 83.5288 60.4074 83.5288 60.4201 83.5288C60.4709 83.532 60.5249 83.5257 60.5725 83.5003C60.6486 83.4622 60.7026 83.386 60.7153 83.3035C60.7787 82.8878 60.7788 82.4434 60.7788 82.0467C60.747 77.6512 57.7225 74.4616 53.5872 74.4616ZM49.2328 80.8979C49.6994 78.7302 51.2957 77.3973 53.4634 77.3973C55.631 77.3973 57.0528 78.6985 57.3797 80.8979H49.2328Z" fill="#2186E6"/>-->
<!--    <path d="M11.0564 67.9333C4.98197 67.9333 0.0405273 72.8747 0.0405273 78.9492C0.0405273 85.0236 4.98197 89.9651 11.0564 89.9651C17.1309 89.9651 22.0723 85.0236 22.0723 78.9492C22.0723 72.8747 17.1309 67.9333 11.0564 67.9333ZM18.5908 78.9492C18.5908 83.2368 15.2108 86.7279 11.0564 86.7279C6.90206 86.7279 3.49034 83.313 3.49034 78.9492C3.49034 74.5853 6.8132 71.1704 11.0564 71.1704C15.2997 71.1704 18.5908 74.6583 18.5908 78.9492Z" fill="#2186E6"/>-->
<!--    <path d="M70.7124 74.4901C68.7384 74.4901 66.996 75.1852 65.6377 76.5118V75.0931C65.6377 74.944 65.5171 74.8234 65.3679 74.8234H62.5751C62.4259 74.8234 62.3053 74.944 62.3053 75.0931V89.2732C62.3053 89.4224 62.4259 89.543 62.5751 89.543H65.3679C65.5171 89.543 65.6377 89.4224 65.6377 89.2732V80.2821C66.8818 78.6064 68.5892 77.7273 70.7188 77.6702C70.8648 77.667 70.979 77.5464 70.979 77.4004V74.7599C70.979 74.6107 70.8584 74.4901 70.7093 74.4901H70.7124Z" fill="#2186E6"/>-->
<!--    <path d="M90.3576 74.8265H78.1516C78.0024 74.8265 77.8818 74.9471 77.8818 75.0963V77.4353C77.8818 77.5845 78.0024 77.7051 78.1516 77.7051H85.7875L77.6692 87.7435C77.6311 87.7911 77.6089 87.8514 77.6089 87.9117V89.2796C77.6089 89.4287 77.7295 89.5493 77.8786 89.5493H90.3576C90.5068 89.5493 90.6274 89.4287 90.6274 89.2796V86.9405C90.6274 86.7914 90.5068 86.6708 90.3576 86.6708H82.5725L90.5671 76.8164C90.6051 76.7688 90.6274 76.7085 90.6274 76.6482V75.0995C90.6274 74.9503 90.5068 74.8297 90.3576 74.8297V74.8265Z" fill="#2186E6"/>-->
<!--    <path d="M98.7679 74.4616C94.3025 74.4616 91.059 77.7146 91.059 82.1991C91.059 86.6835 94.2993 89.9048 98.7679 89.9048C102.056 89.9048 104.728 88.2101 105.582 85.5918C105.607 85.5092 105.595 85.4204 105.544 85.3506C105.493 85.2807 105.414 85.2395 105.328 85.2395H102.322C102.224 85.2395 102.132 85.2934 102.084 85.3823C101.532 86.4264 100.39 87.0009 98.8599 87.0009C96.1972 87.0009 94.842 85.2617 94.4231 83.5288H105.569C105.569 83.5288 105.588 83.5288 105.601 83.5288C105.652 83.532 105.706 83.5257 105.753 83.5003C105.829 83.4622 105.883 83.386 105.896 83.3035C105.959 82.8878 105.959 82.4434 105.959 82.0467C105.928 77.6512 102.903 74.4616 98.7679 74.4616ZM94.4136 80.8979C94.8801 78.7302 96.4765 77.3973 98.6441 77.3973C100.812 77.3973 102.234 78.6985 102.56 80.8979H94.4136Z" fill="#2186E6"/>-->
<!--    <path d="M74.0829 67.7809C72.8927 67.7809 71.9914 68.6537 71.9914 69.8089C71.9914 70.9642 72.8896 71.8369 74.0829 71.8369C75.2762 71.8369 76.1744 70.9451 76.1744 69.8089C76.1744 68.6728 75.2571 67.7809 74.0829 67.7809Z" fill="#2186E6"/>-->
<!--    <path d="M75.4793 74.8265H72.7182C72.5692 74.8265 72.4484 74.9473 72.4484 75.0963V89.2732C72.4484 89.4222 72.5692 89.543 72.7182 89.543H75.4793C75.6283 89.543 75.7491 89.4222 75.7491 89.2732V75.0963C75.7491 74.9473 75.6283 74.8265 75.4793 74.8265Z" fill="#2186E6"/>-->
</svg>
