<svg width="164" height="40" viewBox="0 0 164 40" fill="none" xmlns="http://www.w3.org/2000/svg">
<path d="M7.59551 13.2746C6.76796 11.7363 6.99505 9.9622 8.1665 8.60079C10.8096 5.52423 16.2018 6.10722 19.9301 7.6466C20.0699 7.41733 20.1496 7.14658 20.1496 6.85835C20.1496 6.01006 19.4618 5.32334 18.6146 5.32334C18.2783 5.32334 17.9683 5.43143 17.7161 5.61484C13.9397 4.13333 9.47661 3.93026 6.5245 6.71205C6.24611 6.31683 5.78757 6.05809 5.26789 6.05809C4.4196 6.05809 3.73289 6.74481 3.73289 7.5931C3.73289 8.27436 4.17614 8.85189 4.7908 9.05278C3.90648 10.7756 3.54074 12.5944 3.49707 14.3663C4.82137 13.8619 6.19479 13.4962 7.59661 13.2746H7.59551Z" fill="black"/>
<path d="M8.91406 11.6562C8.91406 12.1824 9.34094 12.6093 9.86716 12.6093C10.3934 12.6093 10.8203 12.1824 10.8203 11.6562C10.8203 11.13 10.3934 10.7031 9.86716 10.7031C9.34094 10.7031 8.91406 11.13 8.91406 11.6562Z" fill="black"/>
<path d="M19.8369 11.6562C19.8369 11.13 19.41 10.7031 18.8838 10.7031C18.3575 10.7031 17.9307 11.13 17.9307 11.6562C17.9307 12.1824 18.3575 12.6093 18.8838 12.6093C19.41 12.6093 19.8369 12.1824 19.8369 11.6562Z" fill="black"/>
<path d="M11.7939 16.4326C11.7295 16.1379 11.438 15.9523 11.1432 16.0167C7.87778 16.734 4.85581 18.3126 2.40373 20.5846C2.1821 20.7898 2.169 21.1348 2.37425 21.3564C2.47688 21.4667 2.61444 21.5257 2.75418 21.5311C2.89393 21.5366 3.03586 21.4885 3.14612 21.3859C5.45627 19.2461 8.30248 17.7591 11.3779 17.0833C11.6727 17.0189 11.8583 16.7274 11.7939 16.4326Z" fill="black"/>
<path d="M10.839 15.205C11.1403 15.205 11.3849 14.9616 11.3849 14.6603C11.3849 14.3589 11.1414 14.1144 10.8401 14.1133H10.8172C7.06153 14.1133 3.40743 15.1887 0.250074 17.2248C-0.00321253 17.3885 -0.0763601 17.7259 0.087403 17.9792C0.192211 18.1408 0.366892 18.2292 0.547031 18.2292C0.648565 18.2292 0.751189 18.2008 0.841805 18.1419C3.82229 16.2204 7.27114 15.205 10.8172 15.205C10.8248 15.205 10.8324 15.2039 10.8401 15.205H10.839Z" fill="black"/>
<path d="M36.869 27.588C38.8483 25.7517 40.1814 23.2723 40.5864 20.5298C41.1399 16.784 39.8975 13.0131 37.2653 10.3361C37.2129 10.2826 37.1288 10.2739 37.0666 10.3143C37.0044 10.3547 36.9782 10.4355 37.0066 10.5053C38.4116 13.999 37.8614 17.867 35.7849 20.7919C35.9563 19.3278 35.0938 17.89 33.6418 17.3932C33.4846 17.3397 33.3121 17.4172 33.2487 17.5712C32.252 19.984 29.8818 21.6412 27.1666 21.6412C24.4514 21.6412 22.1653 20.0243 21.1477 17.7109C22.3257 18.1236 23.4393 18.7175 24.4361 19.4708C24.5333 19.544 24.6468 19.58 24.7593 19.5811C24.9263 19.5822 25.0922 19.5079 25.2003 19.3649C25.3827 19.1247 25.3346 18.7819 25.0944 18.6007C23.4033 17.3223 21.4054 16.4641 19.3136 16.118C19.0166 16.0678 18.735 16.2698 18.6858 16.5679C18.6367 16.8648 18.8376 17.1465 19.1356 17.1956C19.5691 17.2677 19.9981 17.3648 20.4206 17.4838C19.9643 17.9304 19.3376 18.2175 18.6542 18.2175H18.652C18.6389 18.2186 18.6269 18.2197 18.6149 18.2197C17.1486 18.2197 15.9696 17.0024 16.0241 15.5372C16.8495 15.3604 17.4205 14.9324 17.6967 14.5295C18.3408 13.5841 17.3179 12.4956 15.1802 12.4956C12.6877 12.4956 12.1342 13.7675 12.6746 14.5416C13.0939 15.142 13.9564 15.5154 14.452 15.5132C14.3297 17.533 12.5109 19.0309 10.5042 18.771L10.5064 18.7688C10.3001 18.7404 10.0981 18.6924 9.90267 18.6247C8.03905 19.2492 6.29661 20.2001 4.7627 21.4338C5.56404 23.6566 6.44727 25.1239 6.45055 25.1283C7.43968 26.7397 8.65261 28.2092 10.0391 29.5029C10.0391 29.5029 10.0435 29.5062 10.0457 29.5084C10.5632 29.991 11.1047 30.4484 11.6669 30.8796C13.0382 32.0205 14.9597 33.5719 16.142 34.3241L16.4095 33.6647C20.235 35.3176 24.5486 35.9083 28.8075 35.0709C28.814 35.0698 28.8217 35.0676 28.8282 35.0665C33.3579 34.1713 35.7019 31.8819 39.1267 31.1548C39.2829 31.122 39.3899 30.9768 39.3757 30.8174C39.308 30.0947 38.9029 28.3512 36.8188 27.6371C36.8362 27.6219 36.8526 27.6055 36.8701 27.5891L36.869 27.588ZM28.492 30.9965C28.2179 31.3207 27.9461 31.6417 27.6699 31.9485C26.208 33.573 24.0212 34.3449 21.8628 34.001C20.1663 33.7313 18.4795 33.2378 16.8724 32.5435C16.9128 32.4288 16.9543 32.3186 16.9958 32.2105L17.1497 31.8295H17.1486C17.3124 31.4386 17.4827 31.0882 17.6563 30.7585C18.1061 29.9025 17.9707 28.8566 17.319 28.1426L9.86446 19.9938C12.084 20.3944 14.2522 19.2579 15.368 17.6814C16.1737 18.7175 17.0788 19.0647 17.9216 19.2328C18.8933 20.1302 18.843 19.9643 18.843 21.151C18.843 21.7187 19.3038 22.1806 19.8726 22.1806C20.4796 22.1806 20.8377 22.1194 21.2023 22.4644L21.2362 22.4983C21.8847 23.1806 21.115 24.0027 21.9262 24.6523C22.5976 25.1905 23.542 24.8303 23.7319 24.708C26.4482 22.9535 29.3239 22.2603 31.6209 22.7734C32.5489 22.936 33.3721 23.3269 34.0348 23.9907C34.8951 24.851 35.394 25.9755 35.56 27.2463C33.6265 27.0334 31.1165 27.8937 28.4931 30.9965H28.492Z" fill="black"/>
<path d="M19.1348 14.7607C19.1348 15.062 19.3782 15.3088 19.6796 15.3077C22.2255 15.3099 24.7191 16.0195 26.8873 17.3558C26.9746 17.4093 27.0707 17.4355 27.1657 17.4366C27.3513 17.4388 27.5336 17.3471 27.6384 17.1768C27.7967 16.9202 27.717 16.5839 27.4605 16.4256C25.1209 14.9845 22.4308 14.2192 19.6817 14.2148C19.3804 14.2148 19.1359 14.4583 19.1348 14.7596V14.7607Z" fill="black"/>
<path d="M96.3884 28.3824C96.3185 28.3377 96.2311 28.328 96.1514 28.3494C95.3218 28.5923 94.3832 28.7361 93.6448 28.7361C91.6202 28.7361 90.7186 27.7626 90.7186 25.5766V18.7002H96.2349C96.3962 18.7002 96.5284 18.5681 96.5284 18.4068V15.8497C96.5284 15.6884 96.3962 15.5563 96.2349 15.5563H90.7186V10.1411C90.7186 9.97979 90.5865 9.84766 90.4252 9.84766H87.3707C87.2094 9.84766 87.0774 9.97979 87.0774 10.1411V15.5563H79.2099V10.1411C79.2099 9.97979 79.0778 9.84766 78.9165 9.84766H75.862C75.7007 9.84766 75.5687 9.97979 75.5687 10.1411V15.5563H72.3374C72.1761 15.5563 72.0439 15.6884 72.0439 15.8497V18.4068C72.0439 18.5681 72.1761 18.7002 72.3374 18.7002H75.5687V25.5766C75.5687 29.7503 77.7565 32.1442 81.5727 32.1442C82.8259 32.1442 83.7255 31.9965 85.2742 31.534C85.416 31.4913 85.5054 31.3494 85.4801 31.2018L85.0158 28.5787C85.0003 28.497 84.9517 28.4251 84.8817 28.3805C84.8118 28.3358 84.7243 28.3261 84.6447 28.3474C83.815 28.5903 82.8765 28.7341 82.1381 28.7341C80.1135 28.7341 79.2119 27.7606 79.2119 25.5747V18.6983H87.0793V25.5747C87.0793 29.7484 89.2672 32.1422 93.0834 32.1422C94.3366 32.1422 95.2362 31.9945 96.7848 31.5321C96.9267 31.4893 97.0161 31.3475 96.9908 31.1998L96.5264 28.5767C96.5109 28.4951 96.4623 28.4232 96.3923 28.3785L96.3884 28.3824Z" fill="black"/>
<path d="M105.827 15.1602C100.945 15.1602 97.4004 18.7178 97.4004 23.6202C97.4004 28.5225 100.945 32.0472 105.827 32.0472C109.42 32.0472 112.344 30.1955 113.277 27.3295C113.306 27.2401 113.291 27.1429 113.236 27.0671C113.182 26.9914 113.093 26.9467 112.999 26.9467H109.714C109.605 26.9467 109.506 27.0069 109.453 27.1021C108.851 28.2427 107.599 28.8703 105.928 28.8703C103.02 28.8703 101.537 26.97 101.079 25.0755H113.265C113.277 25.0755 113.287 25.0755 113.299 25.0755C113.355 25.0813 113.413 25.0716 113.466 25.0444C113.549 25.0017 113.607 24.922 113.621 24.8287C113.691 24.3741 113.691 23.8864 113.691 23.455C113.656 18.6499 110.351 15.164 105.829 15.164L105.827 15.1602ZM101.069 22.1979C101.58 19.8274 103.325 18.37 105.695 18.37C108.066 18.37 109.62 19.7943 109.978 22.1979H101.069Z" fill="black"/>
<path d="M59.3302 8.02344C52.6888 8.02344 47.2852 13.4271 47.2852 20.0684C47.2852 26.7098 52.6888 32.1134 59.3302 32.1134C65.9715 32.1134 71.3751 26.7098 71.3751 20.0684C71.3751 13.4271 65.9715 8.02344 59.3302 8.02344ZM67.5687 20.0684C67.5687 24.757 63.873 28.5712 59.3302 28.5712C54.7873 28.5712 51.0585 24.8367 51.0585 20.0684C51.0585 15.3002 54.6921 11.5657 59.3302 11.5657C63.9682 11.5657 67.5687 15.3798 67.5687 20.0684Z" fill="black"/>
<path d="M124.549 15.1914C122.39 15.1914 120.488 15.9531 119 17.4006V15.8501C119 15.6888 118.868 15.5567 118.706 15.5567H115.652C115.491 15.5567 115.358 15.6888 115.358 15.8501V31.3518C115.358 31.513 115.491 31.6452 115.652 31.6452H118.706C118.868 31.6452 119 31.513 119 31.3518V21.5219C120.36 19.6876 122.227 18.7277 124.557 18.6656C124.716 18.6617 124.842 18.5315 124.842 18.3722V15.4848C124.842 15.3235 124.71 15.1914 124.549 15.1914Z" fill="black"/>
<path d="M146.027 15.5586H132.682C132.521 15.5586 132.389 15.6907 132.389 15.852V18.4091C132.389 18.5704 132.521 18.7025 132.682 18.7025H141.03L132.154 29.6768C132.111 29.7293 132.088 29.7934 132.088 29.8614V31.3556C132.088 31.5169 132.22 31.649 132.381 31.649H146.024C146.185 31.649 146.317 31.5169 146.317 31.3556V28.7986C146.317 28.6373 146.185 28.5052 146.024 28.5052H137.511L146.251 17.731C146.294 17.6785 146.317 17.6143 146.317 17.5463V15.8539C146.317 15.6927 146.185 15.5605 146.024 15.5605L146.027 15.5586Z" fill="black"/>
<path d="M155.224 15.1602C150.341 15.1602 146.797 18.7178 146.797 23.6202C146.797 28.5225 150.341 32.0472 155.224 32.0472C158.817 32.0472 161.741 30.1955 162.674 27.3295C162.703 27.2401 162.687 27.1429 162.633 27.0671C162.578 26.9914 162.489 26.9467 162.396 26.9467H159.11C159.001 26.9467 158.902 27.0069 158.85 27.1021C158.247 28.2427 156.996 28.8703 155.325 28.8703C152.416 28.8703 150.934 26.97 150.475 25.0755H162.662C162.674 25.0755 162.683 25.0755 162.695 25.0755C162.751 25.0813 162.81 25.0716 162.862 25.0444C162.946 25.0017 163.004 24.922 163.017 24.8287C163.087 24.3741 163.087 23.8864 163.087 23.455C163.052 18.6499 159.747 15.164 155.226 15.164L155.224 15.1602ZM150.465 22.1979C150.976 19.8274 152.721 18.37 155.092 18.37C157.462 18.37 159.017 19.7943 159.374 22.1979H150.465Z" fill="black"/>
<path d="M128.234 7.85547C126.932 7.85547 125.949 8.80949 125.949 10.0744C125.949 11.3393 126.932 12.2934 128.234 12.2934C129.536 12.2934 130.519 11.318 130.519 10.0744C130.519 8.83087 129.515 7.85547 128.234 7.85547Z" fill="black"/>
<path d="M129.762 15.5586H126.741C126.579 15.5586 126.447 15.69 126.447 15.852V31.3537C126.447 31.5157 126.579 31.6471 126.741 31.6471H129.762C129.924 31.6471 130.055 31.5157 130.055 31.3537V15.852C130.055 15.69 129.924 15.5586 129.762 15.5586Z" fill="black"/>
</svg>
