<svg width="44" height="45" viewBox="0 0 44 45" fill="none" xmlns="http://www.w3.org/2000/svg">
<rect x="1" y="1.16504" width="42" height="42" rx="9" fill="white"/>
<path d="M18.8401 15.2149C17.4463 15.2149 16.3198 14.0884 16.3198 12.6946C16.3198 11.3008 17.4463 10.1743 18.8401 10.1743C20.2339 10.1743 21.3604 11.3008 21.3604 12.6946V15.2149H18.8401Z" fill="black"/>
<path d="M12.5394 27.8549C13.9332 27.8549 15.0597 26.7284 15.0597 25.3346V22.8143H12.5394C11.1456 22.8143 10.0191 23.9408 10.0191 25.3346C10.0191 26.7284 11.1456 27.8549 12.5394 27.8549Z" fill="black"/>
<path d="M18.8401 22.8143C17.4463 22.8143 16.3198 23.9408 16.3198 25.3346V31.6353C16.3198 33.0291 17.4463 34.1556 18.8401 34.1556C20.2339 34.1556 21.3604 33.0291 21.3604 31.6353V25.3346C21.3604 23.9408 20.2339 22.8143 18.8401 22.8143Z" fill="black"/>
<path d="M21.3604 19.015C21.3604 17.6212 20.2339 16.4947 18.8401 16.4947H12.5203C11.1265 16.4947 10 17.6212 10 19.015C10 20.4088 11.1265 21.5353 12.5203 21.5353H18.8401C20.2339 21.5353 21.3604 20.4088 21.3604 19.015Z" fill="black"/>
<path d="M28.9403 19.015C28.9403 17.6212 30.0668 16.4947 31.4606 16.4947C32.8544 16.4947 33.9809 17.6212 33.9809 19.015C33.9809 20.4088 32.8544 21.5353 31.4606 21.5353H28.9403V19.015Z" fill="black"/>
<path d="M25.16 21.5347C26.5538 21.5347 27.6802 20.4082 27.6802 19.0144V12.6946C27.6802 11.3008 26.5538 10.1743 25.16 10.1743C23.7662 10.1743 22.6397 11.3008 22.6397 12.6946V19.0144C22.6397 20.4082 23.7662 21.5347 25.16 21.5347Z" fill="black"/>
<path d="M25.1599 29.115C26.5537 29.115 27.6802 30.2415 27.6802 31.6353C27.6802 33.0291 26.5537 34.1556 25.1599 34.1556C23.7661 34.1556 22.6396 33.0291 22.6396 31.6353V29.115H25.1599Z" fill="black"/>
<path d="M22.6396 25.3346C22.6396 26.7284 23.7661 27.8549 25.1599 27.8549H31.4797C32.8735 27.8549 34 26.7284 34 25.3346C34 23.9408 32.8735 22.8143 31.4797 22.8143H25.1599C23.7661 22.8143 22.6396 23.9408 22.6396 25.3346Z" fill="black"/>
<rect x="1" y="1.16504" width="42" height="42" rx="9" stroke="black" stroke-width="2"/>
</svg>
