<svg width="169" height="40" viewBox="0 0 169 40" fill="none" xmlns="http://www.w3.org/2000/svg">
<path d="M61.5737 17.5693C61.5737 24.1998 65.4092 28.7192 71.9208 28.7192C78.1648 28.7192 82.3274 24.4971 82.3274 17.5693C82.3274 10.9685 78.4324 6.47881 71.9208 6.47881C65.7066 6.47881 61.5737 10.7009 61.5737 17.5693ZM65.766 17.5693C65.766 13.0201 68.0852 9.98732 71.9208 9.98732C75.6672 9.98732 78.135 12.9012 78.135 17.5693C78.135 22.1184 75.8456 25.1512 71.9208 25.1512C68.2041 25.1512 65.766 22.2968 65.766 17.5693ZM83.1715 12.6336V15.7258H85.7583V23.7835C85.7583 26.3406 86.5611 28.6895 90.4859 28.6895C91.3184 28.6895 92.0617 28.63 92.9835 28.4219V25.4188C92.6861 25.508 92.0023 25.5675 91.5563 25.5675C89.8615 25.5675 89.5344 24.5863 89.5344 23.3375V15.7258H92.9835V12.6336H89.5344V7.60867L85.7583 8.2628V12.6336H83.1715ZM93.1031 12.6336V15.7258H95.6899V23.7835C95.6899 26.3406 96.4927 28.6895 100.417 28.6895C101.25 28.6895 101.993 28.63 102.915 28.4219V25.4188C102.618 25.508 101.934 25.5675 101.488 25.5675C99.7931 25.5675 99.466 24.5863 99.466 23.3375V15.7258H102.915V12.6336H99.466V7.60867L95.6899 8.2628V12.6336H93.1031ZM111.334 28.7192C115.199 28.7192 118.083 26.6082 118.648 23.5159H114.902C114.545 24.8539 113.177 25.7756 111.334 25.7756C108.925 25.7756 107.349 24.1998 107.439 21.3751H118.38C118.47 20.8697 118.529 20.0966 118.529 19.4722C118.529 15.1906 115.794 12.3362 111.304 12.3362C106.725 12.3362 103.633 15.5772 103.633 20.5723C103.633 25.508 106.755 28.7192 111.334 28.7192ZM107.468 18.8181C107.558 16.6773 109.015 15.2501 111.185 15.2501C113.415 15.2501 114.753 16.5583 114.753 18.8181H107.468ZM121.241 28.4219H125.017V21.7319C125.017 17.3017 127.247 15.4285 130.904 15.8745V12.4552C128.139 12.1578 125.76 13.2877 125.017 15.8448H124.838L124.541 12.6336H121.241V28.4219ZM132.754 10.6117H136.5V6.59774H132.754V10.6117ZM132.754 28.4219H136.5V12.6336H132.754V28.4219ZM143.712 25.3296L151.234 15.3988V12.6336H139.103V15.7258H146.655L139.133 25.6567V28.4219H151.353V25.3296H143.712ZM160.262 28.7192C164.127 28.7192 167.012 26.6082 167.577 23.5159H163.83C163.473 24.8539 162.106 25.7756 160.262 25.7756C157.854 25.7756 156.278 24.1998 156.367 21.3751H167.309C167.398 20.8697 167.458 20.0966 167.458 19.4722C167.458 15.1906 164.722 12.3362 160.232 12.3362C155.654 12.3362 152.561 15.5772 152.561 20.5723C152.561 25.508 155.683 28.7192 160.262 28.7192ZM156.397 18.8181C156.486 16.6773 157.943 15.2501 160.113 15.2501C162.343 15.2501 163.681 16.5583 163.681 18.8181H156.397Z" fill="black"/>
<path d="M9.39002 11.2974C8.36655 9.30623 8.6474 7.00979 10.0962 5.24752C13.3651 1.26512 20.0338 2.01977 24.6448 4.01238C24.8176 3.71561 24.9162 3.36514 24.9162 2.99205C24.9162 1.894 24.0656 1.00508 23.0178 1.00508C22.6019 1.00508 22.2185 1.145 21.9066 1.38241C17.2362 -0.535301 11.7165 -0.798167 8.06545 2.80267C7.72115 2.29109 7.15405 1.95617 6.51135 1.95617C5.46223 1.95617 4.61294 2.84508 4.61294 3.94314C4.61294 4.82498 5.16113 5.57256 5.9213 5.83259C4.82762 8.06262 4.3753 10.417 4.32129 12.7106C5.95911 12.0577 7.65769 11.5843 9.39137 11.2974H9.39002Z" fill="black"/>
<path d="M11.0242 9.2015C11.0242 9.88266 11.5521 10.4352 12.2029 10.4352C12.8537 10.4352 13.3817 9.88266 13.3817 9.2015C13.3817 8.52033 12.8537 7.96777 12.2029 7.96777C11.5521 7.96777 11.0242 8.52033 11.0242 9.2015Z" fill="black"/>
<path d="M24.5379 9.2015C24.5379 8.52033 24.01 7.96777 23.3592 7.96777C22.7084 7.96777 22.1804 8.52033 22.1804 9.2015C22.1804 9.88266 22.7084 10.4352 23.3592 10.4352C24.01 10.4352 24.5379 9.88266 24.5379 9.2015Z" fill="black"/>
<path d="M14.5841 15.3885C14.5044 15.0069 14.1439 14.7666 13.7794 14.85C9.74086 15.7785 6.00344 17.822 2.97085 20.7629C2.69675 21.0286 2.68055 21.4751 2.93439 21.762C3.06131 21.9047 3.23144 21.981 3.40427 21.9881C3.5771 21.9952 3.75262 21.933 3.889 21.8002C6.74607 19.0303 10.2661 17.1055 14.0697 16.2307C14.4342 16.1473 14.6638 15.77 14.5841 15.3885Z" fill="black"/>
<path d="M13.4051 13.7989C13.7777 13.7989 14.0802 13.4838 14.0802 13.0938C14.0802 12.7037 13.7791 12.3872 13.4064 12.3857H13.3781C8.73331 12.3857 4.21412 13.7777 0.309278 16.4134C-0.00397308 16.6254 -0.0944379 17.062 0.108095 17.3899C0.237717 17.5991 0.453752 17.7135 0.676539 17.7135C0.802109 17.7135 0.92903 17.6768 1.0411 17.6005C4.7272 15.1132 8.99255 13.7989 13.3781 13.7989C13.3875 13.7989 13.397 13.7975 13.4064 13.7989H13.4051Z" fill="black"/>
<path d="M45.5957 29.8245C48.0437 27.4475 49.6923 24.2381 50.1933 20.6881C50.8778 15.8394 49.3413 10.9582 46.0859 7.49305C46.0211 7.4238 45.9171 7.41249 45.8401 7.46477C45.7632 7.51706 45.7308 7.62164 45.7659 7.71208C47.5036 12.2343 46.8231 17.2413 44.255 21.0273C44.467 19.1322 43.4003 17.271 41.6045 16.628C41.4101 16.5587 41.1967 16.6591 41.1184 16.8583C39.8857 19.9815 36.9543 22.1268 33.5963 22.1268C30.2383 22.1268 27.411 20.0338 26.1526 17.0392C27.6094 17.5734 28.9867 18.3422 30.2194 19.3173C30.3396 19.412 30.48 19.4586 30.6191 19.46C30.8257 19.4615 31.0309 19.3654 31.1646 19.1802C31.3901 18.8693 31.3307 18.4256 31.0336 18.191C28.9421 16.5361 26.4712 15.4254 23.8842 14.9774C23.5169 14.9124 23.1686 15.1738 23.1078 15.5596C23.047 15.944 23.2955 16.3086 23.6641 16.3722C24.2001 16.4655 24.7308 16.5912 25.2533 16.7453C24.6889 17.3233 23.9139 17.695 23.0686 17.695H23.0659C23.0497 17.6964 23.0349 17.6978 23.02 17.6978C21.2067 17.6978 19.7485 16.1221 19.816 14.2255C20.8367 13.9966 21.5429 13.4426 21.8845 12.9211C22.6811 11.6973 21.416 10.2884 18.7722 10.2884C15.6897 10.2884 15.0051 11.9347 15.6735 12.9367C16.192 13.714 17.2586 14.1973 17.8716 14.1944C17.7204 16.8089 15.471 18.7478 12.9892 18.4115L12.9919 18.4086C12.7368 18.3719 12.487 18.3097 12.2453 18.2221C9.94044 19.0304 7.78549 20.2613 5.88843 21.8583C6.87949 24.7355 7.97182 26.6349 7.97587 26.6405C9.19917 28.7264 10.6993 30.6286 12.414 32.3032C12.414 32.3032 12.4194 32.3075 12.4222 32.3103C13.0622 32.9349 13.7319 33.5271 14.4272 34.0853C16.1231 35.5621 18.4995 37.5702 19.9618 38.5439L20.2926 37.6904C25.0238 39.8299 30.3585 40.5945 35.6257 39.5106C35.6338 39.5092 35.6433 39.5063 35.6514 39.5049C41.2534 38.3461 44.1524 35.3826 48.388 34.4414C48.5811 34.399 48.7134 34.2111 48.6959 34.0047C48.6121 33.0692 48.1112 30.8123 45.5336 29.8881C45.5552 29.8683 45.5755 29.8471 45.5971 29.8259L45.5957 29.8245ZM35.2355 34.2365C34.8966 34.6562 34.5604 35.0717 34.2188 35.4688C32.4108 37.5717 29.7063 38.5708 27.0369 38.1256C24.9387 37.7766 22.8526 37.1378 20.8651 36.239C20.915 36.0906 20.9664 35.9479 21.0177 35.808L21.208 35.3148H21.2067C21.4092 34.8088 21.6199 34.3552 21.8345 33.9284C22.3908 32.8205 22.2234 31.4666 21.4173 30.5424L12.198 19.9942C14.943 20.5129 17.6246 19.0417 19.0045 17.0011C20.0009 18.3422 21.1203 18.7916 22.1627 19.0092C23.3643 20.1709 23.3022 19.9561 23.3022 21.4922C23.3022 22.2271 23.872 22.8249 24.5755 22.8249C25.3262 22.8249 25.7691 22.7457 26.2201 23.1923L26.2619 23.2361C27.064 24.1194 26.112 25.1835 27.1153 26.0244C27.9457 26.7211 29.1136 26.2547 29.3485 26.0965C32.7079 23.8254 36.2644 22.928 39.1052 23.5922C40.2529 23.8028 41.271 24.3087 42.0906 25.168C43.1545 26.2816 43.7716 27.7372 43.9768 29.3822C41.5856 29.1066 38.4814 30.2202 35.2368 34.2365H35.2355Z" fill="black"/>
<path d="M23.6699 13.2242C23.6699 13.6142 23.971 13.9336 24.3437 13.9322C27.4924 13.935 30.5763 14.8536 33.2578 16.5833C33.3659 16.6526 33.4847 16.6865 33.6022 16.6879C33.8317 16.6908 34.0572 16.572 34.1868 16.3516C34.3826 16.0195 34.284 15.5842 33.9667 15.3793C31.0732 13.5139 27.7462 12.5232 24.3464 12.5176C23.9737 12.5176 23.6713 12.8327 23.6699 13.2228V13.2242Z" fill="black"/>
</svg>
