<svg width="252" height="48" viewBox="0 0 252 48" fill="none" xmlns="http://www.w3.org/2000/svg">
<g id="Frame">
<g id="Clip path group">
<mask id="mask0_5924_80869" style="mask-type:luminance" maskUnits="userSpaceOnUse" x="4" y="4" width="243" height="40">
<g id="clip0_8557_20058">
<path id="Vector" d="M4.86328 4.81714H246.68V43.3678H4.86328V4.81714Z" fill="white"/>
</g>
</mask>
<g mask="url(#mask0_5924_80869)">
<g id="Group">
<path id="Vector_2" d="M62.3039 21.6829C63.2316 21.7014 64.1504 21.4981 64.9844 21.0896C65.8184 20.6811 66.5438 20.0793 67.1007 19.3338L69.679 21.9841C67.6404 24.2731 65.3019 25.4175 62.5437 25.4175C61.2991 25.4653 60.0577 25.2605 58.8936 24.8155C57.7294 24.3704 56.6666 23.6943 55.7683 22.8274C54.8937 21.981 54.2066 20.9587 53.752 19.8273C53.2973 18.6955 53.0855 17.4807 53.1302 16.2618C53.0959 15.0295 53.3183 13.8036 53.7829 12.6627C54.2476 11.5217 54.9442 10.4908 55.8283 9.63591C56.7792 8.73459 57.902 8.03618 59.129 7.58282C60.356 7.12946 61.6617 6.93055 62.9674 6.9981C64.273 7.06566 65.5514 7.39826 66.7256 7.97586C67.8997 8.55345 68.9452 9.36405 69.7989 10.3587L67.3405 13.1898C66.7989 12.4572 66.0935 11.8629 65.281 11.4548C64.4686 11.0468 63.572 10.8364 62.6637 10.8406C61.2478 10.8132 59.8751 11.3304 58.8263 12.2863C58.282 12.7885 57.8547 13.4052 57.5749 14.0924C57.295 14.7799 57.1695 15.5205 57.2074 16.2618C57.1694 17.0016 57.2829 17.7413 57.5408 18.4357C57.7985 19.1298 58.1952 19.7635 58.7063 20.2976C59.6929 21.1918 60.9752 21.6856 62.3039 21.6829ZM72.7967 25.1765V7.28661H76.754V21.6226H84.3689V25.1765H72.7967ZM101.758 22.707C99.9553 24.4095 97.5754 25.3575 95.1022 25.3575C92.6282 25.3575 90.2479 24.4095 88.4463 22.707C87.5677 21.8605 86.8741 20.8397 86.4096 19.7093C85.945 18.579 85.7197 17.3639 85.7481 16.1413C85.7141 14.918 85.9369 13.7012 86.4017 12.57C86.8666 11.4389 87.5632 10.4186 88.4463 9.57565C90.2479 7.87304 92.6282 6.92505 95.1022 6.92505C97.5754 6.92505 99.9553 7.87304 101.758 9.57565C102.636 10.4221 103.329 11.4429 103.794 12.5733C104.259 13.7036 104.484 14.9188 104.456 16.1413C104.49 17.3646 104.267 18.5814 103.802 19.7126C103.337 20.8437 102.64 21.864 101.758 22.707ZM100.378 16.1413C100.389 14.6277 99.8325 13.1654 98.8194 12.0453C98.342 11.5145 97.7592 11.0903 97.1084 10.7999C96.4577 10.5095 95.7538 10.3595 95.0421 10.3595C94.3295 10.3595 93.6256 10.5095 92.9749 10.7999C92.3241 11.0903 91.7417 11.5145 91.2644 12.0453C90.2394 13.1582 89.6811 14.6253 89.7055 16.1413C89.6943 17.6549 90.2509 19.1172 91.2644 20.2373C91.7417 20.7681 92.3241 21.1923 92.9749 21.4828C93.6256 21.7731 94.3295 21.9231 95.0421 21.9231C95.7538 21.9231 96.4577 21.7731 97.1084 21.4828C97.7592 21.1923 98.342 20.7681 98.8194 20.2373C99.3386 19.6939 99.7445 19.0516 100.012 18.3479C100.279 17.6444 100.404 16.8941 100.378 16.1413ZM112.55 20.5985C112.867 21.0105 113.277 21.3403 113.746 21.5604C114.216 21.7805 114.731 21.8844 115.248 21.8635C115.758 21.8907 116.267 21.7891 116.727 21.5682C117.188 21.3473 117.587 21.0139 117.887 20.5985C118.575 19.6147 118.913 18.4262 118.846 17.2254V7.3468H122.803V17.3459C122.803 19.936 122.084 21.9237 120.645 23.3091C119.92 24.0071 119.065 24.5529 118.127 24.9149C117.191 25.2769 116.192 25.4477 115.188 25.4174C114.176 25.4478 113.168 25.2771 112.221 24.9154C111.274 24.5531 110.408 24.0072 109.672 23.3091C108.233 21.9237 107.513 19.936 107.513 17.3459V7.3468H111.471V17.2254C111.469 18.4357 111.847 19.6157 112.55 20.5985ZM140.551 9.63579C142.23 11.2019 143.129 13.3704 143.129 16.1412C143.129 18.912 142.29 21.1407 140.671 22.7671C139.052 24.3934 136.474 25.1765 133.116 25.1765H126.941V7.28661H133.237C136.414 7.28661 138.873 8.06966 140.551 9.63579ZM137.673 20.2974C138.632 19.3939 139.112 18.0085 139.112 16.2616C139.112 14.5148 138.632 13.1294 137.673 12.2259C136.714 11.3224 135.215 10.7803 133.176 10.7803H130.958V21.6829H133.476C134.998 21.7643 136.495 21.27 137.673 20.2974ZM165.734 7.28661H169.691V25.1765H165.734L157.22 13.9727V25.1765H153.262V7.28661H156.98L165.734 18.7915V7.28661ZM186.78 25.1765L185.101 21.3214H177.606L175.927 25.1765H171.67L179.345 7.28661H183.183L190.857 25.1765H186.78ZM181.444 12.6475L179.225 17.8278H183.662L181.444 12.6475ZM199.371 10.7802V25.2367H195.414V10.7802H190.377V7.3468H204.468V10.7802H199.371ZM207.286 7.28661H211.244V25.1765H207.286V7.28661ZM222.216 18.6711L226.773 7.28661H231.09L223.955 25.1765H220.597L213.462 7.28661H217.779L222.216 18.6711ZM246.02 7.28661V10.8405H237.146V14.5148H245.121V17.9483H237.146V21.6829H246.32V25.2367H233.189V7.34684H246.02V7.28661ZM57.747 40.4159C58.2693 40.4258 58.7864 40.3108 59.2553 40.0804C59.7244 39.85 60.1322 39.5108 60.4451 39.0907L61.8842 40.5966C61.3957 41.1935 60.7827 41.6755 60.0886 42.0085C59.3949 42.3415 58.6363 42.5175 57.8668 42.5241C57.1723 42.5539 56.479 42.4411 55.8297 42.1926C55.1802 41.944 54.588 41.5649 54.0894 41.0784C53.5961 40.6065 53.2077 40.0352 52.9494 39.4021C52.691 38.7686 52.5687 38.0879 52.5904 37.4041C52.5685 36.7113 52.6905 36.0215 52.9486 35.3783C53.2066 34.7354 53.5952 34.1534 54.0894 33.6695C54.5745 33.1777 55.1544 32.7905 55.7936 32.5316C56.4325 32.2727 57.1177 32.1475 57.8069 32.1637C58.5908 32.1514 59.3678 32.3123 60.0823 32.635C60.7973 32.9576 61.4328 33.4341 61.9441 34.031L60.565 35.597C60.2643 35.1788 59.8673 34.8398 59.4079 34.6091C58.9488 34.3783 58.4405 34.2626 57.9268 34.2719C57.1266 34.2666 56.3546 34.5682 55.7682 35.1152C55.4638 35.3974 55.2254 35.7433 55.0701 36.1283C54.9146 36.5138 54.8459 36.9289 54.8689 37.3439C54.8505 37.7532 54.9155 38.1619 55.0598 38.5451C55.2042 38.9284 55.4248 39.278 55.7083 39.5726C55.9672 39.8529 56.2835 40.0734 56.6355 40.219C56.9875 40.3646 57.3666 40.4318 57.747 40.4159ZM71.7777 41.0185C70.7818 41.9889 69.4475 42.5293 68.0602 42.5243C67.3703 42.5463 66.6834 42.4238 66.0436 42.1646C65.4036 41.9053 64.8243 41.515 64.3426 41.0185C63.3819 40.0392 62.8432 38.7193 62.8432 37.3442C62.8432 35.9691 63.3819 34.6492 64.3426 33.6698C65.3385 32.6994 66.6728 32.159 68.0602 32.1639C68.7501 32.1419 69.4369 32.2645 70.0767 32.5237C70.7167 32.783 71.296 33.1733 71.7777 33.6698C72.7385 34.6492 73.2772 35.9691 73.2772 37.3442C73.2772 38.7193 72.7385 40.0392 71.7777 41.0185ZM71.0581 37.3442C71.0748 36.5023 70.775 35.6851 70.2187 35.0553C69.9546 34.7578 69.6315 34.5184 69.27 34.3523C68.909 34.1865 68.5174 34.0976 68.1201 34.0914C67.7198 34.0778 67.3218 34.1578 66.9578 34.325C66.5936 34.4922 66.2731 34.7423 66.0215 35.0553C65.7343 35.3595 65.5118 35.7194 65.3675 36.1129C65.2232 36.5065 65.1601 36.9253 65.1821 37.3442C65.1763 38.1841 65.4747 38.9976 66.0215 39.6331C66.286 39.9308 66.609 40.1701 66.9703 40.336C67.3314 40.5019 67.723 40.5907 68.1201 40.5969C68.5203 40.6105 68.9182 40.5306 69.2825 40.3633C69.6466 40.196 69.9672 39.9461 70.2187 39.6331C70.775 39.0033 71.0748 38.1861 71.0581 37.3442ZM84.1293 36.0789L81.4311 41.5603H80.112L77.4138 36.0789V42.4036H75.1953V32.3443H78.1933L80.7715 37.8258L83.3498 32.3443H86.3478V42.4036H84.1293V36.0789ZM95.7015 33.3081C96.0805 33.6563 96.3749 34.0872 96.5622 34.5675C96.7487 35.0478 96.8236 35.5649 96.7809 36.0789C96.7809 37.3438 96.4211 38.2474 95.7015 38.7895C94.982 39.3918 93.9026 39.6328 92.4043 39.6328H91.0847V42.4036H88.8663V32.3443H92.4043C93.9026 32.4045 94.982 32.7057 95.7015 33.3081ZM94.083 37.2234C94.373 36.8446 94.5211 36.3756 94.5028 35.8982C94.5281 35.6672 94.4924 35.4335 94.3974 35.2216C94.3025 35.0095 94.1518 34.8272 93.9627 34.6935C93.4688 34.4197 92.9069 34.2942 92.3442 34.3321H91.0847V37.7053H92.5837C92.8529 37.7291 93.1238 37.6987 93.3817 37.616C93.6387 37.5332 93.8774 37.3998 94.083 37.2234ZM101.158 39.8138C101.338 40.0398 101.566 40.2222 101.825 40.3476C102.084 40.473 102.369 40.5381 102.657 40.5381C102.945 40.5381 103.229 40.473 103.489 40.3476C103.748 40.2222 103.977 40.0398 104.156 39.8138C104.546 39.2504 104.736 38.5714 104.695 37.8862V32.3446H106.914V37.9465C106.948 38.5606 106.86 39.1756 106.654 39.7549C106.448 40.3342 106.128 40.8662 105.714 41.3196C104.867 42.067 103.774 42.4741 102.645 42.463C101.517 42.4519 100.433 42.0234 99.599 41.2594C99.1852 40.806 98.8655 40.274 98.6599 39.6946C98.4535 39.1153 98.3655 38.5005 98.3995 37.8862V32.2843H100.618V37.826C100.56 38.5317 100.751 39.2355 101.158 39.8138ZM113.449 34.3322V42.4038H111.231V34.3322H108.413V32.4047H116.328V34.3322H113.449ZM117.947 32.4047H120.165V42.464H117.947V32.4047ZM129.579 32.4047H131.797V42.464H129.579L124.842 36.1995V42.464H122.623V32.4047H124.722L129.639 38.8499V32.4047H129.579ZM140.791 37.3441H143.01V40.8979C142.481 41.459 141.837 41.9 141.123 42.1912C140.409 42.4822 139.642 42.6163 138.873 42.5845C137.493 42.6115 136.157 42.0923 135.155 41.1389C134.661 40.6665 134.273 40.0953 134.015 39.4625C133.757 38.8293 133.635 38.1485 133.656 37.4646C133.643 36.7779 133.767 36.0957 134.021 35.458C134.275 34.8203 134.654 34.2401 135.134 33.7517C135.615 33.2633 136.188 32.8765 136.82 32.6141C137.451 32.3518 138.129 32.2191 138.813 32.2241C140.193 32.1971 141.528 32.7164 142.53 33.6697L141.39 35.3563C141.045 34.9901 140.612 34.7202 140.132 34.5733C139.747 34.4298 139.343 34.3485 138.933 34.3323C138.132 34.3271 137.36 34.6287 136.774 35.1756C136.472 35.472 136.236 35.8292 136.081 36.2236C135.926 36.618 135.856 37.0409 135.874 37.4646C135.847 38.3083 136.148 39.1295 136.714 39.7535C136.969 40.0219 137.277 40.2352 137.617 40.3801C137.957 40.5252 138.323 40.5989 138.692 40.5968C139.359 40.6352 140.022 40.4894 140.612 40.1751V37.3441H140.791ZM155.601 32.4047V34.3925H150.984V36.5609H155.361V38.5487H150.984V42.464H148.765V32.4047H155.601ZM165.914 41.0185C164.918 41.9889 163.584 42.5293 162.197 42.5243C161.507 42.5464 160.82 42.4238 160.18 42.1646C159.54 41.9053 158.96 41.515 158.479 41.0185C157.518 40.0392 156.98 38.7193 156.98 37.3442C156.98 35.9691 157.518 34.6492 158.479 33.6698C159.475 32.6994 160.809 32.159 162.197 32.1639C162.887 32.1419 163.573 32.2645 164.213 32.5237C164.853 32.783 165.432 33.1733 165.914 33.6698C166.875 34.6492 167.413 35.9691 167.413 37.3442C167.413 38.7193 166.875 40.0392 165.914 41.0185ZM165.134 37.3442C165.151 36.5023 164.851 35.6851 164.295 35.0553C164.031 34.7575 163.707 34.5182 163.347 34.3523C162.985 34.1864 162.594 34.0976 162.197 34.0914C161.796 34.0777 161.399 34.1577 161.035 34.325C160.67 34.4922 160.35 34.7423 160.098 35.0553C159.811 35.3595 159.589 35.7194 159.444 36.1129C159.299 36.5065 159.237 36.9253 159.258 37.3442C159.253 38.1841 159.551 38.9976 160.098 39.6331C160.362 39.9308 160.685 40.1701 161.047 40.336C161.408 40.5019 161.8 40.5907 162.197 40.5969C162.597 40.6105 162.995 40.5306 163.359 40.3633C163.723 40.196 164.044 39.9461 164.295 39.6331C164.582 39.3287 164.805 38.9689 164.95 38.5754C165.093 38.1819 165.157 37.7629 165.134 37.3442ZM171.97 39.8138C172.15 40.0398 172.378 40.2222 172.637 40.3476C172.897 40.473 173.181 40.5381 173.469 40.5381C173.757 40.5381 174.041 40.473 174.3 40.3476C174.56 40.2222 174.788 40.0398 174.968 39.8138C175.358 39.2504 175.549 38.5714 175.508 37.8862V32.3446H177.726V37.9465C177.761 38.5606 177.672 39.1756 177.466 39.7549C177.26 40.3342 176.941 40.8662 176.527 41.3196C175.679 42.067 174.586 42.4741 173.457 42.463C172.329 42.4519 171.244 42.0234 170.411 41.2594C169.997 40.806 169.678 40.274 169.472 39.6946C169.266 39.1153 169.177 38.5005 169.212 37.8862V32.2843H171.43V37.826C171.343 38.5341 171.536 39.2483 171.97 39.8138ZM187.02 32.4047H189.239V42.464H187.02L182.284 36.1995V42.464H180.065V32.4047H182.163L187.08 38.8499V32.4047H187.02ZM199.312 33.7299C199.799 34.2034 200.18 34.7764 200.428 35.4102C200.676 36.0441 200.787 36.724 200.751 37.4042C200.782 38.0788 200.677 38.7527 200.439 39.3847C200.202 40.0165 199.839 40.593 199.372 41.0786C198.472 41.9822 197.033 42.464 195.115 42.464H191.697V32.4047H195.235C197.033 32.4047 198.412 32.8263 199.312 33.7299ZM197.693 39.6932C197.976 39.3986 198.197 39.049 198.341 38.6658C198.486 38.2826 198.55 37.8738 198.532 37.4645C198.551 37.046 198.487 36.6279 198.342 36.2349C198.199 35.8418 197.977 35.4817 197.693 35.1756C197.346 34.8846 196.944 34.6656 196.512 34.5313C196.079 34.3968 195.625 34.3497 195.175 34.3925H193.915V40.4762H195.354C196.199 40.4871 197.023 40.2112 197.693 39.6932ZM209.505 42.4036L208.605 40.2352H204.408L203.509 42.4036H201.111L205.428 32.3443H207.586L211.903 42.4036H209.505ZM206.507 35.3561L205.248 38.2474H207.766L206.507 35.3561ZM216.581 34.3322V42.4038H214.362V34.3322H211.483V32.4047H219.398V34.3322H216.581ZM221.017 32.4047H223.236V42.464H221.017V32.4047ZM234.088 41.0185C233.092 41.9889 231.758 42.5293 230.371 42.5243C229.681 42.5464 228.994 42.4238 228.354 42.1646C227.715 41.9053 227.135 41.515 226.654 41.0185C225.693 40.0392 225.153 38.7193 225.153 37.3442C225.153 35.9691 225.693 34.6492 226.654 33.6698C227.649 32.6994 228.984 32.159 230.371 32.1639C231.061 32.1419 231.747 32.2645 232.387 32.5237C233.028 32.783 233.607 33.1733 234.088 33.6698C235.049 34.6492 235.588 35.9691 235.588 37.3442C235.588 38.7193 235.049 40.0392 234.088 41.0185ZM233.369 37.3442C233.386 36.5023 233.085 35.6851 232.529 35.0553C232.265 34.7575 231.942 34.5182 231.581 34.3523C231.219 34.1864 230.828 34.0976 230.431 34.0914C230.031 34.0777 229.633 34.1577 229.269 34.325C228.905 34.4922 228.584 34.7423 228.332 35.0553C228.045 35.3595 227.823 35.7194 227.678 36.1129C227.533 36.5065 227.471 36.9253 227.492 37.3442C227.487 38.1841 227.785 38.9976 228.332 39.6331C228.596 39.9308 228.919 40.1701 229.281 40.336C229.642 40.5019 230.034 40.5907 230.431 40.5969C230.831 40.6105 231.229 40.5306 231.593 40.3633C231.957 40.196 232.278 39.9461 232.529 39.6331C233.085 39.0033 233.386 38.1861 233.369 37.3442ZM244.461 32.4047H246.679V42.464H244.461L239.724 36.1995V42.464H237.506V32.4047H239.605L244.522 38.8499L244.461 32.4047Z" fill="black"/>
<path id="Vector_3" d="M10.3196 30.4953H4.86329V43.3676H17.6347V37.832H10.3196V30.4953ZM37.7812 30.5556V37.832H30.4661V43.3676H43.2375V30.4953H37.7212L37.7812 30.5556ZM4.86328 17.6892H10.3796L10.3196 17.6291V10.3526H17.6347V4.81702H4.86328V17.6892ZM30.4661 4.81702V10.3526H37.7812V17.6892H43.2375V4.81702H30.4661Z" fill="#0086FF"/>
<path id="Vector_4" d="M29.7465 17.6892L22.4314 10.3526H30.466V4.81702H17.6346V10.3526L24.9497 17.6892H29.7465ZM23.1509 30.4953H18.3541L24.41 36.573L25.6092 37.832H17.6346V43.3676H30.466V37.7717L26.8085 34.1576L23.1509 30.4953ZM37.7812 17.6893V25.6886L36.5221 24.4236L30.4661 18.3459V23.2189L34.0637 26.833L37.7212 30.5014H43.2375V17.6893H37.7812ZM17.6347 24.9657L10.3796 17.6893H4.86328V30.4953H10.3196V22.4961L17.6347 29.8388V24.9657Z" fill="#93EAFF"/>
</g>
</g>
</g>
</g>
</svg>
