<svg width="24" height="24" viewBox="0 0 24 24" fill="none" xmlns="http://www.w3.org/2000/svg">
<path fill-rule="evenodd" clip-rule="evenodd" d="M12.333 2.75C7.36051 2.75 3.33301 6.87937 3.33301 11.9776C3.33301 16.0609 5.90926 19.5097 9.48676 20.7324C9.93676 20.8131 10.1055 20.5363 10.1055 20.2941C10.1055 20.0749 10.0943 19.3482 10.0943 18.5754C7.83301 19.0022 7.24801 18.0102 7.06801 17.4912C6.96676 17.2259 6.52801 16.4069 6.14551 16.1878C5.83051 16.0147 5.38051 15.588 6.13426 15.5764C6.84301 15.5649 7.34926 16.2454 7.51801 16.5223C8.32801 17.9179 9.62176 17.5258 10.1393 17.2835C10.218 16.6837 10.4543 16.28 10.713 16.0493C8.71051 15.8187 6.61801 15.0228 6.61801 11.4932C6.61801 10.4897 6.96676 9.6592 7.54051 9.01326C7.45051 8.78257 7.13551 7.83674 7.63051 6.56794C7.63051 6.56794 8.38426 6.32571 10.1055 7.51377C10.8255 7.30615 11.5905 7.20234 12.3555 7.20234C13.1205 7.20234 13.8855 7.30615 14.6055 7.51377C16.3268 6.31418 17.0805 6.56794 17.0805 6.56794C17.5755 7.83674 17.2605 8.78257 17.1705 9.01326C17.7443 9.6592 18.093 10.4782 18.093 11.4932C18.093 15.0343 15.9893 15.8187 13.9868 16.0493C14.313 16.3377 14.5943 16.8914 14.5943 17.7565C14.5943 18.9907 14.583 19.9826 14.583 20.2941C14.583 20.5363 14.7518 20.8246 15.2018 20.7324C16.9884 20.114 18.541 18.9366 19.6408 17.3662C20.7407 15.7957 21.3325 13.9111 21.333 11.9776C21.333 6.87937 17.3055 2.75 12.333 2.75Z" fill="#102A43"/>
</svg>
