<svg width="24" height="24" viewBox="0 0 24 24" fill="none" xmlns="http://www.w3.org/2000/svg">
<g id="Icon / Instagram">
<g id="Group 28856">
<path id="Vector" fill-rule="evenodd" clip-rule="evenodd" d="M9.22908 2.64478C8.97785 2.64501 8.72912 2.69473 8.49711 2.7911C8.26509 2.88747 8.05434 3.02859 7.87687 3.20642C7.69939 3.38425 7.5587 3.59529 7.46281 3.8275C7.36691 4.05971 7.31769 4.30854 7.31797 4.55977C7.31775 4.81097 7.36699 5.05976 7.46291 5.29192C7.55882 5.52409 7.69953 5.73509 7.87699 5.91288C8.05446 6.09067 8.2652 6.23176 8.49719 6.32811C8.72919 6.42446 8.97789 6.47417 9.22908 6.47441H11.1402V4.55977C11.1405 4.30854 11.0913 4.05971 10.9954 3.8275C10.8995 3.59529 10.7588 3.38425 10.5813 3.20642C10.4038 3.02859 10.1931 2.88747 9.96107 2.7911C9.72906 2.69473 9.48033 2.64501 9.22908 2.64478ZM9.22908 7.75129H4.13279C3.88158 7.75153 3.63288 7.80124 3.4009 7.89758C3.1689 7.99394 2.95816 8.13503 2.7807 8.31282C2.60323 8.49061 2.46253 8.70161 2.36661 8.93377C2.27069 9.16594 2.22145 9.41473 2.22168 9.66593C2.2214 9.91716 2.27061 10.166 2.36651 10.3982C2.4624 10.6304 2.6031 10.8415 2.78057 11.0193C2.95804 11.1971 3.1688 11.3382 3.40081 11.4346C3.63283 11.531 3.88156 11.5807 4.13279 11.5809H9.22908C9.48033 11.5807 9.72906 11.531 9.96107 11.4346C10.1931 11.3382 10.4038 11.1971 10.5813 11.0193C10.7588 10.8415 10.8995 10.6304 10.9954 10.3982C11.0913 10.166 11.1405 9.91716 11.1402 9.66593C11.1404 9.41473 11.0912 9.16594 10.9953 8.93377C10.8994 8.70161 10.7587 8.49061 10.5812 8.31282C10.4037 8.13503 10.193 7.99394 9.96099 7.89758C9.72899 7.80124 9.48029 7.75153 9.22908 7.75129Z" fill="#102A43"/>
<path id="Vector_2" fill-rule="evenodd" clip-rule="evenodd" d="M21.3331 9.66593C21.3333 9.41473 21.284 9.16594 21.1882 8.93377C21.0922 8.70161 20.9516 8.49061 20.7741 8.31282C20.5966 8.13503 20.3858 7.99394 20.1538 7.89758C19.9219 7.80124 19.6731 7.75153 19.422 7.75129C19.1708 7.75153 18.9221 7.80124 18.6901 7.89758C18.458 7.99394 18.2474 8.13503 18.0698 8.31282C17.8924 8.49061 17.7517 8.70161 17.6558 8.93377C17.5599 9.16594 17.5106 9.41473 17.5109 9.66593V11.5809H19.422C19.6733 11.5807 19.9219 11.531 20.154 11.4346C20.3859 11.3382 20.5967 11.1971 20.7743 11.0193C20.9517 10.8415 21.0923 10.6304 21.1883 10.3982C21.2842 10.166 21.3333 9.91716 21.3331 9.66593ZM16.2368 9.66593V4.55977C16.2371 4.30854 16.1879 4.05971 16.0919 3.8275C15.9961 3.59529 15.8553 3.38425 15.6779 3.20642C15.5004 3.02859 15.2897 2.88747 15.0576 2.7911C14.8256 2.69473 14.5769 2.64501 14.3257 2.64478C14.0744 2.64501 13.8257 2.69473 13.5937 2.7911C13.3617 2.88747 13.1509 3.02859 12.9734 3.20642C12.796 3.38425 12.6553 3.59529 12.5594 3.8275C12.4635 4.05971 12.4143 4.30854 12.4146 4.55977V9.66593C12.4143 9.91716 12.4635 10.166 12.5594 10.3982C12.6553 10.6304 12.796 10.8415 12.9734 11.0193C13.1509 11.1971 13.3617 11.3382 13.5937 11.4346C13.8257 11.531 14.0744 11.5807 14.3257 11.5809C14.5769 11.5807 14.8256 11.531 15.0576 11.4346C15.2897 11.3382 15.5004 11.1971 15.6779 11.0193C15.8553 10.8415 15.9961 10.6304 16.0919 10.3982C16.1879 10.166 16.2371 9.91716 16.2368 9.66593Z" fill="#102A43"/>
<path id="Vector_3" fill-rule="evenodd" clip-rule="evenodd" d="M14.3257 21.7936C14.5769 21.7933 14.8256 21.7436 15.0576 21.6472C15.2897 21.5508 15.5004 21.4098 15.6779 21.232C15.8553 21.0541 15.9961 20.8431 16.0919 20.6109C16.1879 20.3787 16.2371 20.1298 16.2368 19.8786C16.237 19.6273 16.1878 19.3786 16.0918 19.1464C15.9959 18.9143 15.8552 18.7033 15.6777 18.5254C15.5003 18.3477 15.2896 18.2066 15.0576 18.1102C14.8256 18.0139 14.5769 17.9642 14.3257 17.9639H12.4146V19.8786C12.4143 20.1298 12.4635 20.3787 12.5594 20.6109C12.6553 20.8431 12.796 21.0541 12.9734 21.232C13.1509 21.4098 13.3617 21.5508 13.5937 21.6472C13.8257 21.7436 14.0744 21.7933 14.3257 21.7936ZM14.3257 16.687H19.422C19.6731 16.6869 19.9219 16.6372 20.1538 16.5408C20.3858 16.4444 20.5966 16.3034 20.7741 16.1255C20.9516 15.9477 21.0922 15.7367 21.1882 15.5046C21.284 15.2724 21.3333 15.0236 21.3331 14.7724C21.3333 14.5212 21.2842 14.2724 21.1883 14.0402C21.0923 13.8079 20.9517 13.5969 20.7743 13.4191C20.5967 13.2412 20.3859 13.1001 20.154 13.0038C19.9219 12.9074 19.6733 12.8577 19.422 12.8574H14.3257C14.0744 12.8577 13.8257 12.9074 13.5937 13.0038C13.3617 13.1001 13.1509 13.2412 12.9734 13.4191C12.796 13.5969 12.6553 13.8079 12.5594 14.0402C12.4635 14.2724 12.4143 14.5212 12.4146 14.7724C12.4143 15.0236 12.4636 15.2724 12.5595 15.5046C12.6554 15.7367 12.7961 15.9477 12.9736 16.1255C13.151 16.3034 13.3618 16.4444 13.5938 16.5408C13.8258 16.6372 14.0745 16.6869 14.3257 16.687Z" fill="#102A43"/>
<path id="Vector_4" fill-rule="evenodd" clip-rule="evenodd" d="M2.22168 14.7724C2.22145 15.0236 2.27069 15.2724 2.36661 15.5046C2.46253 15.7367 2.60323 15.9477 2.7807 16.1255C2.95816 16.3034 3.1689 16.4444 3.4009 16.5408C3.63288 16.6372 3.88158 16.6869 4.13279 16.687C4.384 16.6869 4.6327 16.6372 4.86469 16.5408C5.09668 16.4444 5.30743 16.3034 5.48489 16.1255C5.66235 15.9477 5.80305 15.7367 5.89897 15.5046C5.99488 15.2724 6.04414 15.0236 6.0439 14.7724V12.8574H4.13279C3.88153 12.8577 3.63278 12.9074 3.40073 13.0038C3.16869 13.1002 2.95792 13.2413 2.78045 13.4192C2.60297 13.5971 2.46228 13.8081 2.36641 14.0404C2.27053 14.2727 2.22135 14.5215 2.22168 14.7728V14.7724ZM7.31797 14.7724V19.8786C7.31769 20.1298 7.36691 20.3787 7.46281 20.6109C7.5587 20.8431 7.69939 21.0541 7.87687 21.232C8.05434 21.4098 8.26509 21.5508 8.49711 21.6472C8.72912 21.7436 8.97785 21.7933 9.22908 21.7936C9.48033 21.7933 9.72906 21.7436 9.96107 21.6472C10.1931 21.5508 10.4038 21.4098 10.5813 21.232C10.7588 21.0541 10.8995 20.8431 10.9954 20.6109C11.0913 20.3787 11.1405 20.1298 11.1402 19.8786V14.7728C11.1405 14.5215 11.0913 14.2727 10.9954 14.0405C10.8995 13.8083 10.7588 13.5973 10.5813 13.4194C10.4038 13.2416 10.1931 13.1005 9.96107 13.0041C9.72906 12.9077 9.48033 12.858 9.22908 12.8578C8.97785 12.858 8.72912 12.9077 8.49711 13.0041C8.26509 13.1005 8.05434 13.2416 7.87687 13.4194C7.69939 13.5973 7.5587 13.8083 7.46281 14.0405C7.36691 14.2727 7.31769 14.5215 7.31797 14.7728" fill="#102A43"/>
</g>
</g>
</svg>
