<svg width="24" height="24" viewBox="0 0 24 24" fill="none" xmlns="http://www.w3.org/2000/svg">
<g id="Icon / Youtube">
<path id="Vector" d="M21.5928 7.20301C21.4789 6.78041 21.2563 6.39501 20.9472 6.08518C20.6381 5.77534 20.2532 5.55187 19.8308 5.43701C18.2648 5.00701 11.9998 5.00001 11.9998 5.00001C11.9998 5.00001 5.73584 4.99301 4.16884 5.40401C3.74677 5.52415 3.36266 5.75078 3.05341 6.06214C2.74415 6.3735 2.52013 6.75913 2.40284 7.18201C1.98984 8.74801 1.98584 11.996 1.98584 11.996C1.98584 11.996 1.98184 15.26 2.39184 16.81C2.62184 17.667 3.29684 18.344 4.15484 18.575C5.73684 19.005 11.9848 19.012 11.9848 19.012C11.9848 19.012 18.2498 19.019 19.8158 18.609C20.2383 18.4943 20.6236 18.2714 20.9335 17.9622C21.2434 17.653 21.4672 17.2682 21.5828 16.846C21.9968 15.281 21.9998 12.034 21.9998 12.034C21.9998 12.034 22.0198 8.76901 21.5928 7.20301ZM9.99584 15.005L10.0008 9.00501L15.2078 12.01L9.99584 15.005Z" fill="#102A43"/>
</g>
</svg>
