<svg width="26" height="26" viewBox="0 0 26 26" fill="none" xmlns="http://www.w3.org/2000/svg">
<path d="M13 1C19.6276 1 25 6.59567 25 13.4987C25 18.2686 22.4343 22.4153 18.6616 24.5215C18.1571 24.8032 17.5382 24.5398 17.3382 23.9978L14.9836 17.6184C14.8125 17.1547 15.0177 16.6452 15.3817 16.3108C16.1289 15.6243 16.6 14.6192 16.6 13.4987C16.6 11.4277 14.9884 9.74909 13 9.74909C11.0116 9.74909 9.4 11.4277 9.4 13.4987C9.4 14.6197 9.87222 15.6251 10.6203 16.3122C10.9841 16.6463 11.1889 17.1556 11.0178 17.619L8.66317 23.9987C8.46307 24.5408 7.84393 24.8041 7.33942 24.5223C3.56573 22.4142 1 18.2686 1 13.4987C1 6.59567 6.3724 1 13 1Z" stroke="#3525E6" stroke-width="2"/>
</svg>
