<svg width="24" height="24" viewBox="0 0 24 24" fill="none" xmlns="http://www.w3.org/2000/svg">
<path d="M5.81639 6.6816C6.12762 6.6816 6.37892 6.92559 6.37892 7.22776C6.37892 7.52995 6.12762 7.77392 5.81639 7.77392C5.50515 7.77392 5.25387 7.52995 5.25387 7.22776C5.25387 6.92559 5.50515 6.6816 5.81639 6.6816ZM11.6929 7.22776C11.6929 6.92559 11.4417 6.6816 11.1304 6.6816C10.8192 6.6816 10.5679 6.92559 10.5679 7.22776C10.5679 7.52995 10.8192 7.77392 11.1304 7.77392C11.4417 7.77392 11.6929 7.52995 11.6929 7.22776ZM6.38814 9.25796C6.56566 9.25796 6.7086 9.11918 6.7109 8.94684C6.7109 8.77448 6.56797 8.63346 6.39044 8.63346H6.37661C4.16339 8.63346 2.00781 9.24901 0.14732 10.4152C-0.00253424 10.5092 -0.0440322 10.7017 0.0504908 10.8472C0.112738 10.939 0.216483 10.9905 0.320227 10.9905C0.380168 10.9905 0.44011 10.9748 0.49544 10.9412C2.25218 9.84218 4.28558 9.26021 6.37661 9.26021C6.38122 9.26021 6.38583 9.26021 6.39044 9.26021L6.38814 9.25796ZM11.278 9.00504C11.278 9.17738 11.4209 9.3184 11.5984 9.3184C13.0992 9.3184 14.5701 9.72578 15.8474 10.4913C15.8981 10.5226 15.9557 10.5361 16.011 10.5383C16.1216 10.5383 16.2277 10.4868 16.2899 10.3906C16.3823 10.2429 16.336 10.0503 16.184 9.96082C14.8053 9.13486 13.2192 8.69837 11.5984 8.69614C11.4209 8.69614 11.2757 8.83491 11.2757 9.00727L11.278 9.00504ZM21.7308 16.3469C21.7308 16.3469 21.7101 16.3648 21.7008 16.3738C22.9296 16.7834 23.1694 17.7794 23.2086 18.1936C23.2178 18.2854 23.1533 18.3681 23.061 18.3861C21.0415 18.8024 19.6605 20.1118 16.9909 20.6244H16.9793C14.4687 21.1057 11.9258 20.7677 9.67107 19.8231L9.58577 20.0268C9.53967 20.1365 9.42901 20.2081 9.30682 20.2104C8.54833 20.2104 7.82673 19.8746 7.35642 19.2881C6.88611 18.7017 6.72473 17.9406 6.90916 17.2288C3.7415 15.7157 2.60952 12.376 2.54497 12.2283C2.30751 12.4074 2.07467 12.5976 1.85334 12.7968C1.78878 12.855 1.70349 12.8819 1.6228 12.8797C1.54211 12.8774 1.45912 12.8438 1.39917 12.7789C1.27929 12.6513 1.2862 12.4544 1.41761 12.338C2.86312 11.0375 4.64523 10.1332 6.57027 9.72355C6.74317 9.68774 6.91609 9.79293 6.95297 9.96082C6.99216 10.1287 6.8815 10.2966 6.7086 10.3324C6.19678 10.4421 5.6942 10.5898 5.20775 10.7711C6.20831 11.9149 8.41461 11.1584 8.52067 9.43256C8.22788 9.43256 7.72067 9.21992 7.474 8.87521C7.15585 8.43201 7.48092 7.70453 8.95178 7.70453C10.2129 7.70453 10.8146 8.32681 10.4342 8.8685C10.2728 9.09904 9.93389 9.34303 9.44745 9.44599C9.41518 10.2854 10.1114 10.9815 10.9736 10.9815C10.9806 10.9815 10.9875 10.9815 10.9967 10.9815C11.4001 10.9815 11.769 10.8159 12.0388 10.5607C11.7898 10.4936 11.5362 10.4376 11.2803 10.3951C11.1051 10.366 10.9875 10.207 11.0151 10.0347C11.0451 9.86457 11.2088 9.74818 11.3863 9.77727C12.6197 9.97648 13.7978 10.4667 14.7938 11.1986C14.9344 11.3016 14.9644 11.4986 14.856 11.6374C14.7914 11.7202 14.6946 11.7627 14.5955 11.7605C14.5286 11.7605 14.4618 11.7403 14.4042 11.6978C13.8162 11.2658 13.1592 10.9278 12.4653 10.6905C13.0647 12.0157 14.4272 12.9401 16.0133 12.9401C17.5995 12.9401 19.0104 11.991 19.5983 10.61C19.6352 10.5226 19.7366 10.4779 19.8311 10.507C20.6865 10.7913 21.1959 11.615 21.0945 12.4521C22.3187 10.7778 22.6437 8.56407 21.8138 6.5652C21.7977 6.52492 21.8138 6.48014 21.8484 6.45553C21.8853 6.4309 21.9336 6.43761 21.966 6.46672C23.5175 8.00001 24.2507 10.1578 23.9233 12.2999C23.6835 13.869 22.8974 15.2881 21.7308 16.3402V16.3469ZM20.9585 16.1522C20.8617 15.4247 20.5666 14.78 20.0594 14.2876C19.6674 13.9071 19.1834 13.6855 18.637 13.5915C17.2836 13.2982 15.5868 13.6944 13.9869 14.6995C13.8739 14.7689 13.3183 14.977 12.9217 14.6681C12.4445 14.2966 12.8964 13.8265 12.516 13.4348L12.4952 13.4146C12.2808 13.2177 12.0687 13.2512 11.7114 13.2512C11.3771 13.2512 11.1051 12.9871 11.1051 12.6625C11.1051 11.9843 11.135 12.0783 10.561 11.5657C10.063 11.4695 9.53044 11.2703 9.05552 10.6771C8.39848 11.5792 7.11897 12.2305 5.81178 12L10.2059 16.6648C10.5909 17.0722 10.6716 17.672 10.4042 18.1623C10.3028 18.3502 10.2013 18.5517 10.1045 18.7755C10.0284 18.9569 9.99845 19.024 9.94081 19.1851C10.8883 19.5836 11.882 19.8657 12.8826 20.02C14.1552 20.217 15.4439 19.7761 16.3062 18.845C16.4675 18.6704 16.6289 18.4868 16.7902 18.301C18.3372 16.526 19.8174 16.0335 20.9562 16.1543L20.9585 16.1522ZM4.45618 8.11192C3.99509 7.24119 4.13341 6.24512 4.81352 5.47959C6.372 3.71799 9.5512 4.05151 11.7483 4.93343C11.8313 4.80136 11.8774 4.64692 11.8774 4.48127C11.8774 3.99555 11.4716 3.6016 10.9713 3.6016C10.7731 3.6016 10.591 3.66427 10.4411 3.76947C8.21865 2.92113 5.58584 2.80474 3.84524 4.39846C3.68156 4.17238 3.41182 4.02465 3.10519 4.02465C2.60491 4.02465 2.20146 4.4186 2.20146 4.90434C2.20146 5.2938 2.46198 5.62508 2.82393 5.73924C2.31904 6.69503 2.10233 7.70229 2.06544 8.68718C2.82854 8.38276 3.63544 8.19027 4.45618 8.11415V8.11192Z" fill="#3525E6"/>
</svg>
