<svg width="19" height="15" viewBox="0 0 19 15" fill="none" xmlns="http://www.w3.org/2000/svg">
<path d="M11.248 13.7884C11.0169 13.5372 10.9059 13.2338 10.9152 12.878C10.9252 12.5223 11.0457 12.2189 11.2769 11.9677L14.5417 8.42064H1.6557C1.32825 8.42064 1.05358 8.30011 0.831686 8.05903C0.610562 7.81879 0.5 7.52079 0.5 7.16504C0.5 6.80928 0.610562 6.51087 0.831686 6.26979C1.05358 6.02955 1.32825 5.90943 1.6557 5.90943H14.5417L11.248 2.33096C11.0169 2.07984 10.9013 1.78142 10.9013 1.43571C10.9013 1.09084 11.0169 0.792841 11.248 0.54172C11.4791 0.290599 11.7538 0.165039 12.072 0.165039C12.3894 0.165039 12.6637 0.290599 12.8949 0.54172L18.1822 6.28612C18.2978 6.41168 18.3798 6.5477 18.4283 6.69419C18.4761 6.84067 18.5 6.99762 18.5 7.16504C18.5 7.33245 18.4761 7.4894 18.4283 7.63589C18.3798 7.78238 18.2978 7.9184 18.1822 8.04396L12.866 13.8197C12.6541 14.0499 12.3894 14.165 12.072 14.165C11.7538 14.165 11.4791 14.0395 11.248 13.7884Z" fill="black"/>
</svg>
