<svg width="40" height="39" viewBox="0 0 40 39" fill="none" xmlns="http://www.w3.org/2000/svg">
<path d="M19.9969 0.796875C9.39368 0.796875 0.796875 9.39368 0.796875 19.9969C0.796875 28.9937 6.99208 36.5217 15.3441 38.6049C15.2545 38.3457 15.1969 38.0449 15.1969 37.6721V34.3905C14.4177 34.3905 13.1121 34.3905 12.7841 34.3905C11.4705 34.3905 10.3025 33.8257 9.73608 32.7761C9.10728 31.6097 8.99848 29.8257 7.44007 28.7345C6.97767 28.3713 7.32967 27.9569 7.86247 28.0129C8.84647 28.2913 9.66247 28.9665 10.4305 29.9681C11.1953 30.9713 11.5553 31.1985 12.9841 31.1985C13.6769 31.1985 14.7137 31.1585 15.6897 31.0049C16.2145 29.6721 17.1217 28.4449 18.2305 27.8657C11.8369 27.2081 8.78568 24.0273 8.78568 19.7089C8.78568 17.8497 9.57768 16.0513 10.9233 14.5361C10.4817 13.0321 9.92648 9.96488 11.0929 8.79688C13.9697 8.79688 15.7089 10.6625 16.1265 11.1665C17.5601 10.6753 19.1345 10.3969 20.7889 10.3969C22.4465 10.3969 24.0273 10.6753 25.4641 11.1697C25.8769 10.6689 27.6177 8.79688 30.5009 8.79688C31.6721 9.96648 31.1105 13.0465 30.6641 14.5473C32.0017 16.0593 32.7889 17.8529 32.7889 19.7089C32.7889 24.0241 29.7425 27.2033 23.3585 27.8641C25.1153 28.7809 26.3969 31.3569 26.3969 33.2977V37.6721C26.3969 37.8385 26.3601 37.9585 26.3409 38.1009C33.8225 35.4785 39.1969 28.3745 39.1969 19.9969C39.1969 9.39368 30.6001 0.796875 19.9969 0.796875Z" fill="black"/>
</svg>
