<svg width="30" height="30" viewBox="0 0 30 30" fill="none" xmlns="http://www.w3.org/2000/svg">
<path d="M11.0501 6.30072C9.30783 6.30072 7.89972 4.8926 7.89972 3.15036C7.89972 1.40812 9.30783 0 11.0501 0C12.7923 0 14.2004 1.40812 14.2004 3.15036V6.30072H11.0501Z" fill="black"/>
<path d="M3.17425 22.1007C4.91649 22.1007 6.32461 20.6926 6.32461 18.9503V15.8H3.17425C1.432 15.8 0.0238897 17.2081 0.0238897 18.9503C0.0238897 20.6926 1.432 22.1007 3.17425 22.1007Z" fill="black"/>
<path d="M11.0501 15.8C9.3079 15.8 7.89979 17.2081 7.89979 18.9503V26.8262C7.89979 28.5685 9.3079 29.9766 11.0501 29.9766C12.7924 29.9766 14.2005 28.5685 14.2005 26.8262V18.9503C14.2005 17.2081 12.7924 15.8 11.0501 15.8Z" fill="black"/>
<path d="M14.2005 11.0508C14.2005 9.30859 12.7924 7.90048 11.0501 7.90048H3.15036C1.40812 7.90048 0 9.30859 0 11.0508C0 12.7931 1.40812 14.2012 3.15036 14.2012H11.0501C12.7924 14.2012 14.2005 12.7931 14.2005 11.0508Z" fill="black"/>
<path d="M23.6754 11.0508C23.6754 9.30859 25.0835 7.90048 26.8258 7.90048C28.568 7.90048 29.9761 9.30859 29.9761 11.0508C29.9761 12.7931 28.568 14.2012 26.8258 14.2012H23.6754V11.0508Z" fill="black"/>
<path d="M18.9499 14.2005C20.6922 14.2005 22.1003 12.7924 22.1003 11.0501V3.15036C22.1003 1.40812 20.6922 0 18.9499 0C17.2077 0 15.7996 1.40812 15.7996 3.15036V11.0501C15.7996 12.7924 17.2077 14.2005 18.9499 14.2005Z" fill="black"/>
<path d="M18.9499 23.6759C20.6921 23.6759 22.1002 25.084 22.1002 26.8262C22.1002 28.5685 20.6921 29.9766 18.9499 29.9766C17.2076 29.9766 15.7995 28.5685 15.7995 26.8262V23.6759H18.9499Z" fill="black"/>
<path d="M15.7995 18.9503C15.7995 20.6926 17.2076 22.1007 18.9499 22.1007H26.8496C28.5919 22.1007 30 20.6926 30 18.9503C30 17.2081 28.5919 15.8 26.8496 15.8H18.9499C17.2076 15.8 15.7995 17.2081 15.7995 18.9503Z" fill="black"/>
</svg>
